<svg width="344" height="214" viewBox="0 0 344 214" fill="none" xmlns="http://www.w3.org/2000/svg">
<rect x="46.5" y="39.5" width="251" height="138" rx="69" fill="#F9E4E9" stroke="#5C2231" stroke-width="17"/>
<path d="M136 144.544L207.544 73" stroke="#5C2231" stroke-width="17" stroke-linecap="round"/>
<path d="M207.544 144.544L136 73" stroke="#5C2231" stroke-width="17" stroke-linecap="round"/>
<path d="M72.7314 21.586L81.4076 34.4568C83.271 37.221 86.0912 39.1981 89.3251 40.0072L104.176 43.7229C107.423 44.5352 108.678 48.4808 106.498 51.0199L97.196 61.8539C94.9115 64.5147 93.752 67.96 93.963 71.4606L94.8298 85.8407C95.0254 89.0864 91.82 91.4618 88.7718 90.3301L73.6985 84.7342C70.6673 83.6089 67.3328 83.6089 64.3015 84.7342L49.2282 90.3301C46.18 91.4618 42.9746 89.0864 43.1702 85.8407L44.037 71.4606C44.248 67.96 43.0885 64.5147 40.804 61.8539L31.5017 51.0199C29.3216 48.4808 30.5771 44.5352 33.8236 43.7229L48.6749 40.0072C51.9088 39.1981 54.729 37.221 56.5924 34.4568L65.2686 21.586C67.0525 18.9398 70.9475 18.9398 72.7314 21.586Z" fill="#FCE8BC" stroke="#E5A22E" stroke-width="9"/>
</svg>
