<svg width="662" height="664" viewBox="0 0 662 664" fill="none" xmlns="http://www.w3.org/2000/svg">
<g clip-path="url(#clip0_47_477)">
<rect x="18.5" y="19.5" width="625" height="625" rx="65.5" fill="#E3F6FF" stroke="#5C2231" stroke-width="25"/>
<path d="M18.5 521.5H643.5V579C643.5 615.175 614.175 644.5 578 644.5H84C47.8254 644.5 18.5 615.175 18.5 579V521.5Z" fill="#F9E4E9" stroke="#5C2231" stroke-width="25"/>
<path d="M31.5 422C67.4368 422 101.902 404.142 127.313 372.355C152.724 340.567 167 297.454 167 252.5C167 207.546 152.724 164.433 127.313 132.645C101.902 100.858 67.4369 83 31.5 83L31.5 252.5V422Z" fill="#A2C9E7"/>
<path d="M631 509.5C631 473.563 613.142 439.098 581.355 413.687C549.567 388.276 506.454 374 461.5 374C416.546 374 373.433 388.276 341.645 413.687C309.858 439.098 292 473.563 292 509.5L461.5 509.5H631Z" fill="#A2C9E7"/>
<path d="M570.882 288.041C568.152 397.256 445.565 452.955 318.597 452.955C172.795 449.679 99.6215 378.412 99.6215 280.396C99.6215 182.38 203.375 92.5468 339.347 95.8233C466.316 95.8233 557.231 175.55 570.882 288.041Z" fill="#FCE8BC"/>
<path d="M175.834 144.827C200.3 132.354 217.199 113.468 231.988 127.962C268.697 163.94 289.61 213.027 290.127 264.425C290.644 315.823 270.723 365.321 234.744 402.03C219.025 418.069 205.014 432.204 205.014 432.204L171.157 411.453L144.162 390.013L127.091 369.263L112.22 342.753L98.7878 312.531L98.7879 292.812L102.115 270.423L108.121 243.666L119.589 215.816L130.51 197.25L140.523 179.17L175.834 144.827Z" fill="#E5A22E"/>
<path d="M492.248 143.332C467.783 130.859 450.884 111.973 436.095 126.467C399.386 162.445 378.472 211.532 377.955 262.93C377.438 314.328 397.36 363.826 433.338 400.535C449.057 416.574 459.484 427.836 459.484 427.836L497.163 407.085L523.92 388.518L540.991 367.768L555.862 341.258L569.295 311.036L569.295 291.317L565.968 268.928L559.961 242.171L548.494 214.321L537.572 195.755L527.559 177.675L492.248 143.332Z" fill="#E5A22E"/>
<path d="M92.5226 98.0076L117.642 101.83L142.761 111.659L165.15 124.765L185.355 139.509L144.946 174.458L111.635 225.243L102.352 196.301L92.5226 161.352L87.6079 126.949L92.5226 98.0076Z" fill="#F9E4E9"/>
<path d="M575.251 100.192L550.132 104.014L525.012 113.844L502.623 126.949L482.418 141.693L522.828 176.642L556.138 227.427L565.422 198.485L575.251 163.536L580.166 129.134L575.251 100.192Z" fill="#F9E4E9"/>
<path d="M92.5222 94.1851C98.3412 85.4276 92.5222 94.1851 98.3412 85.4276C104.798 78.3167 113.809 76.4332 124.58 73.8771C135.351 71.3209 149.591 76.738 162.143 79.3378C174.695 81.9376 213.743 113.482 239.685 115.482L186.449 134.686C180.189 130.757 163.512 121.123 154.775 115.482C146.584 111.66 138.939 107.837 138.939 107.837C138.939 107.837 138.393 107.837 124.58 105.107C103.99 99.6459 124.58 105.107 103.99 99.6459L92.5222 94.1851Z" fill="#E5A22E"/>
<path d="M576.9 96.6216C565.432 87.8641 571.251 98.4706 565.432 89.7131C554.581 86.6474 555.612 80.8017 544.841 78.2455C534.07 75.6894 520.359 78.9222 507.807 81.522C495.255 84.1217 450.384 107.688 439.002 114.832L482.973 137.123C489.233 133.194 505.91 123.56 514.647 117.918C522.838 114.096 530.483 110.273 530.483 110.273C530.483 110.273 531.029 110.273 544.841 107.543C565.432 102.082 544.841 107.543 565.432 102.082L576.9 96.6216Z" fill="#E5A22E"/>
<path d="M105.787 279.236L105.798 279.012L105.799 278.788C105.941 231.53 132.112 186.944 174.306 153.836C216.456 120.762 273.862 99.8164 334.433 99.8164C403.169 99.8164 456.643 119.739 494.652 151.865C532.672 184.001 555.9 228.92 563.165 280.162C569.092 321.96 549.856 361.446 509.712 392.055C469.438 422.763 408.594 443.979 333.911 447.883C263.992 451.538 205.509 434.159 165.399 403.647C125.459 373.266 103.371 329.676 105.787 279.236Z" stroke="#5C2231" stroke-width="20"/>
<path d="M110.979 234.974C56.5699 91.7947 98.0762 35.4774 243.49 120.063" stroke="#5C2231" stroke-width="20"/>
<path d="M551.508 236.677C608.907 98.4108 571.534 36.4896 424.218 117.95" stroke="#5C2231" stroke-width="20"/>
<path d="M480.349 139.729C516.435 112.046 539 105.001 574.365 105.182" stroke="#5C2231" stroke-width="20"/>
<path d="M183.661 138.634C148.96 109.233 126.763 101.104 91.4303 99.5697" stroke="#5C2231" stroke-width="20"/>
<path d="M450.88 318.859C474.057 313.645 488.444 314.821 513.204 323.543" stroke="#5C2231" stroke-width="20" stroke-linecap="round"/>
<path d="M218.579 319.405C195.401 314.191 181.014 315.367 156.254 324.089" stroke="#5C2231" stroke-width="20" stroke-linecap="round"/>
<path d="M228.577 348.502C204.945 350.93 191.679 356.621 170.978 372.764" stroke="#5C2231" stroke-width="20" stroke-linecap="round"/>
<path d="M442.009 348.502C465.642 350.93 478.908 356.621 499.608 372.764" stroke="#5C2231" stroke-width="20" stroke-linecap="round"/>
<circle cx="248.699" cy="273.843" r="27.3036" fill="#5C2231"/>
<circle cx="420.166" cy="273.843" r="27.3036" fill="#5C2231"/>
<path d="M306 319.395C326.774 309.673 337.873 312.154 356 319.395" stroke="#5C2231" stroke-width="20" stroke-linecap="round"/>
<path d="M73 582.5H180" stroke="#5C2231" stroke-width="25" stroke-linecap="round"/>
<path d="M214 582.5H419" stroke="#5C2231" stroke-width="25" stroke-linecap="round"/>
<path d="M452 582.5H495" stroke="#5C2231" stroke-width="25" stroke-linecap="round"/>
<path d="M526 582.5H589" stroke="#5C2231" stroke-width="25" stroke-linecap="round"/>
</g>
<defs>
<clipPath id="clip0_47_477">
<rect width="662" height="664" fill="white"/>
</clipPath>
</defs>
</svg>
