<svg width="662" height="664" viewBox="0 0 662 664" fill="none" xmlns="http://www.w3.org/2000/svg">
<g clip-path="url(#clip0_43_20)">
<path d="M18.5 295.226C18.5 281.695 29.469 270.726 43 270.726H344.808C358.15 270.726 370.927 265.34 380.243 255.789L425.01 209.893C429.621 205.166 435.945 202.5 442.549 202.5H619C632.531 202.5 643.5 213.469 643.5 227V512C643.5 525.531 632.531 536.5 619 536.5H43C29.469 536.5 18.5 525.531 18.5 512V295.226Z" fill="#D48B9F" stroke="#5C2231" stroke-width="25"/>
<path d="M465.754 291.595C463.254 391.595 351.01 442.595 234.754 442.595C101.254 439.595 34.2537 374.341 34.2537 284.595C34.2537 194.848 129.254 112.595 253.754 115.595C370.01 115.595 453.254 188.595 465.754 291.595Z" fill="#FCE8BC"/>
<path d="M128.753 423.095C126.254 441.595 127.238 463.087 128.753 480.595C130.268 498.103 136.242 533.595 145.753 551.095C158.254 574.095 175.356 594.475 191.254 603.595C207.151 612.714 227.085 618.106 245.253 619.095C263.422 620.084 287.105 610.97 303.253 603.595C319.402 596.22 337.938 571.592 348.254 557.595C358.569 543.597 370.207 499.909 372.254 482.595C374.3 465.28 375.254 434.407 372.254 416.595L314.754 434.095L278.754 441.595L242.754 444.095L208.254 444.095L161.254 434.095L128.753 423.095Z" fill="#FCE8BC"/>
<path d="M27.7537 117.595L50.7537 121.095L73.7537 130.095L94.2537 142.095L112.754 155.595L75.7537 187.595L45.2537 234.095L36.7537 207.595L27.7537 175.595L23.2537 144.095L27.7537 117.595Z" fill="#F9E4E9"/>
<path d="M469.754 119.595L446.754 123.095L423.754 132.095L403.254 144.095L384.754 157.595L421.754 189.595L452.254 236.095L460.754 209.595L469.754 177.595L474.254 146.095L469.754 119.595Z" fill="#F9E4E9"/>
<path d="M27.7533 114.095C32.5915 106.92 27.7533 114.095 32.5915 106.92C38.0652 101.164 45.4687 95.3865 54.9753 93.6587C64.4819 91.9308 75.7995 94.3063 87.1035 97.0127C98.4074 99.719 153.762 124.674 164.205 131.178L113.189 152.154C107.446 148.576 92.178 139.752 84.1547 134.627C76.6923 131.062 69.7172 127.519 69.7172 127.519C69.7172 127.519 69.2299 127.497 56.7965 124.629C38.2054 119.178 56.7965 124.629 38.2054 119.178L27.7533 114.095Z" fill="#FCE8BC"/>
<path d="M467.107 118.738C461.798 110.708 467.107 118.738 461.798 110.708C455.946 104.162 448.163 97.4656 438.542 94.985C428.922 92.5043 417.759 94.316 406.631 96.4842C395.504 98.6524 341.781 121.85 331.763 128.157L384.158 154.05C389.668 150.581 404.358 142.096 412.046 137.112C419.276 133.769 426.019 130.418 426.019 130.418C426.019 130.418 426.505 130.426 438.752 128.159C456.987 123.517 438.752 128.159 456.987 123.517L467.107 118.738Z" fill="#FCE8BC"/>
<path d="M40.7419 283.573L40.7526 283.349L40.7533 283.125C40.8828 240.177 64.669 199.577 103.157 169.377C141.602 139.211 193.981 120.095 249.253 120.095C312.023 120.095 360.783 138.285 395.41 167.552C430.048 196.83 451.226 237.763 457.852 284.499C463.226 322.395 445.811 358.271 409.233 386.162C372.525 414.151 316.991 433.54 248.731 437.108C184.869 440.447 131.529 424.569 94.992 396.776C58.6259 369.113 38.5441 329.46 40.7419 283.573Z" stroke="#5C2231" stroke-width="20"/>
<path d="M45.6528 243.005C-4.16565 111.906 33.8387 60.3403 166.984 137.79" stroke="#5C2231" stroke-width="20"/>
<path d="M448.014 244.565C500.57 117.964 466.35 61.2671 331.464 135.854" stroke="#5C2231" stroke-width="20"/>
<path d="M382.859 155.796C415.9 130.448 436.561 123.998 468.943 124.164" stroke="#5C2231" stroke-width="20"/>
<path d="M115.449 160.199C83.6756 133.279 63.3515 125.835 30.9999 124.43" stroke="#5C2231" stroke-width="20"/>
<path d="M224.754 318.99C245.528 309.268 256.626 311.748 274.754 318.99" stroke="#5C2231" stroke-width="20" stroke-linecap="round"/>
<path d="M355.876 319.813C377.098 315.038 390.271 316.115 412.942 324.102" stroke="#5C2231" stroke-width="20" stroke-linecap="round"/>
<path d="M143.174 320.313C121.952 315.538 108.779 316.615 86.1082 324.602" stroke="#5C2231" stroke-width="20" stroke-linecap="round"/>
<path d="M152.329 346.955C130.691 349.178 118.544 354.388 99.5902 369.17" stroke="#5C2231" stroke-width="20" stroke-linecap="round"/>
<path d="M347.754 346.955C369.393 349.178 381.539 354.388 400.493 369.17" stroke="#5C2231" stroke-width="20" stroke-linecap="round"/>
<path d="M128.885 424.959C107.419 694.912 398.817 672.244 370.862 412.595" stroke="#5C2231" stroke-width="20"/>
<circle cx="170.754" cy="278.595" r="25" fill="#5C2231"/>
<circle cx="327.754" cy="278.595" r="25" fill="#5C2231"/>
<path d="M18.5 449.415C18.5 437.168 18.5097 428.734 19.0443 422.191C19.567 415.794 20.5284 412.312 21.8243 409.769C24.7484 404.03 29.4143 399.364 35.1533 396.44C37.6965 395.144 41.1783 394.182 47.5756 393.66C54.1188 393.125 62.5526 393.115 74.8 393.115H364.53C364.972 393.115 365.408 393.116 365.839 393.116C374.804 393.119 381.288 393.121 387.545 391.659C393.07 390.368 398.365 388.237 403.244 385.34C408.769 382.06 413.444 377.567 419.907 371.354C420.217 371.056 420.532 370.754 420.85 370.447L448.178 344.198C455.97 336.712 458.49 334.397 461.227 332.773L454.846 322.024L461.227 332.773C463.908 331.181 466.818 330.01 469.854 329.3C472.953 328.576 476.374 328.5 487.179 328.5H587.2C599.447 328.5 607.881 328.51 614.424 329.044C620.822 329.567 624.303 330.528 626.847 331.824C632.586 334.748 637.252 339.414 640.176 345.153C641.472 347.697 642.433 351.178 642.956 357.576C643.49 364.119 643.5 372.553 643.5 384.8V587.2C643.5 599.447 643.49 607.881 642.956 614.424C642.433 620.822 641.472 624.303 640.176 626.847C637.252 632.586 632.586 637.252 626.847 640.176C624.303 641.472 620.822 642.433 614.424 642.956C607.881 643.49 599.447 643.5 587.2 643.5H74.8C62.5526 643.5 54.1188 643.49 47.5756 642.956C41.1782 642.433 37.6965 641.472 35.1533 640.176C29.4144 637.252 24.7484 632.586 21.8243 626.847C20.5284 624.303 19.567 620.822 19.0443 614.424C18.5097 607.881 18.5 599.447 18.5 587.2V449.415Z" fill="#F9E4E9" stroke="#5C2231" stroke-width="25"/>
<path d="M294.365 479.53L322.5 437.868L350.635 479.53C353.259 483.416 357.228 486.194 361.777 487.33L411.338 499.708L379.356 536.889C376.133 540.636 374.497 545.491 374.795 550.424L377.72 598.859L329.102 580.842C324.842 579.263 320.158 579.263 315.898 580.842L267.28 598.859L270.205 550.424C270.503 545.491 268.867 540.636 265.644 536.889L233.662 499.708L283.223 487.33C287.772 486.194 291.741 483.416 294.365 479.53Z" fill="#FCE8BC" stroke="#5C2231" stroke-width="20"/>
<path d="M459.5 134.5C459.5 134.5 457 133.872 447 135.5C439.465 136.726 436.237 137.41 429.087 140.052C422.209 142.592 417.914 144.648 411.423 148.038C405.165 151.305 398 157 398 157L408.5 166L417 174.5C417 174.5 420.003 169.622 425.426 163.374C429.148 159.086 433.515 154.48 438.802 149.667C444.275 144.686 443.519 145.767 450.287 140.613C455.881 136.352 459.5 134.5 459.5 134.5Z" fill="#F9B0C4"/>
<path d="M36.5 134.5C36.5 134.5 45.119 134.934 50.9813 136.093C57.9518 137.471 68.3674 141.518 68.3674 141.518C68.3674 141.518 79.1031 146.202 85.5289 150.056C91.3149 153.526 99.5 160 99.5 160L89 167.957L80 176.5C80 176.5 78.0199 173.806 72.3835 167.957C68.5156 163.943 63.8538 158.854 58.8703 153.914C53.6887 148.778 53.6887 148.778 47.5061 143.205C42.3826 138.587 36.5 134.5 36.5 134.5Z" fill="#F9B0C4"/>
</g>
<defs>
<clipPath id="clip0_43_20">
<rect width="662" height="664" fill="white"/>
</clipPath>
</defs>
</svg>
