<svg width="662" height="664" viewBox="0 0 662 664" fill="none" xmlns="http://www.w3.org/2000/svg">
<path d="M339.335 74.3231L339.335 74.3233H339.347C466.071 74.3233 556.748 153.865 570.382 266.065C569.009 320.438 537.817 361.515 491.075 389.022C444.314 416.542 382.021 430.454 318.603 430.455C245.778 428.818 191.159 410.202 154.754 379.819C118.359 349.444 100.121 307.27 100.121 258.396C100.121 160.751 203.545 71.0511 339.335 74.3231Z" fill="#FCE8BC" stroke="#463009"/>
<path d="M204.937 409.571L171.444 389.043L144.515 367.655L127.506 346.979L112.668 320.529L99.2879 290.425L99.2881 270.849L102.607 248.515L108.6 221.817L120.038 194.039L130.942 175.503L130.942 175.503L130.948 175.492L140.925 157.477L176.129 123.238C182.242 120.117 187.881 116.6 193.116 113.315L193.625 112.996C198.692 109.815 203.369 106.879 207.76 104.731C212.298 102.51 216.477 101.158 220.406 101.228C224.313 101.298 228.023 102.776 231.638 106.319C268.252 142.204 289.112 191.165 289.628 242.43C290.143 293.695 270.273 343.065 234.387 379.68C226.528 387.699 219.096 395.242 213.629 400.78C210.895 403.55 208.652 405.818 207.093 407.393C206.314 408.181 205.705 408.796 205.291 409.214L204.937 409.571Z" fill="#C18318" stroke="#463009"/>
<path d="M459.585 405.209L496.899 384.659L523.578 366.147L540.577 345.484L555.415 319.034L568.795 288.93L568.795 269.354L565.476 247.02L559.483 220.322L548.045 192.544L537.141 174.008L537.141 174.008L537.135 173.997L527.158 155.982L491.954 121.743C485.841 118.622 480.202 115.105 474.967 111.82L474.458 111.501C469.39 108.32 464.713 105.384 460.323 103.236C455.785 101.015 451.606 99.6625 447.676 99.7332C443.77 99.8034 440.06 101.281 436.445 104.824C399.83 140.709 378.971 189.67 378.455 240.935C377.939 292.2 397.81 341.57 433.695 378.185C441.557 386.207 448.095 393.034 452.668 397.856C454.955 400.267 456.75 402.177 457.974 403.484C458.586 404.137 459.055 404.64 459.371 404.98C459.452 405.067 459.524 405.144 459.585 405.209Z" fill="#C18318" stroke="#463009"/>
<path d="M164.876 103.184L184.552 117.542L144.618 152.08L144.566 152.125L144.527 152.184L111.791 202.093L102.831 174.157L93.0129 139.249L88.1139 104.956L92.9332 76.5758L117.512 80.316L142.543 90.1107L164.876 103.184Z" fill="#F9E4E9" stroke="#463009"/>
<path d="M502.898 105.368L483.221 119.727L523.155 154.264L523.208 154.31L523.246 154.368L555.982 204.277L564.943 176.341L574.761 141.433L579.66 107.14L574.84 78.7601L550.262 82.5003L525.231 92.295L502.898 105.368Z" fill="#F9E4E9" stroke="#463009"/>
<path d="M139.162 85.3897L138.939 85.8369L139.162 85.3897L139.057 85.3369L138.962 85.3369C138.959 85.3366 138.956 85.3361 138.951 85.3356C138.917 85.3312 138.847 85.3214 138.717 85.3005C138.455 85.2587 137.959 85.1742 137.029 85.0038C135.171 84.6634 131.588 83.9821 124.693 82.6191L115.7 80.2342L114.574 79.9355L114.434 79.8982L114.416 79.8935L114.414 79.893L114.413 79.8929L114.413 79.8929L114.413 79.8928L114.411 79.8922L114.393 79.8875L114.253 79.8502L113.127 79.5516L104.163 77.1744L93.2578 71.9815L93.2665 71.9684L93.2978 71.9212L93.3289 71.8744L93.3598 71.8279L93.3904 71.7819L93.4207 71.7362L93.4508 71.6909L93.4807 71.646L93.5102 71.6015L93.5396 71.5573L93.5687 71.5135L93.5975 71.4701L93.6262 71.4271L93.6545 71.3844L93.6826 71.342L93.7105 71.3001L93.7382 71.2585L93.7656 71.2172L93.7927 71.1764L93.8197 71.1358L93.8463 71.0957L93.8728 71.0558L93.899 71.0164L93.925 70.9773L93.9508 70.9385L93.9763 70.9001L94.0016 70.862L94.0267 70.8243L94.0515 70.7869L94.0761 70.7499L94.1005 70.7132L94.1247 70.6768L94.1486 70.6408L94.1723 70.6051L94.1958 70.5697L94.2191 70.5347L94.2421 70.5L94.265 70.4657L94.2876 70.4316L94.31 70.3979L94.3322 70.3645L94.3541 70.3315L94.3759 70.2987L94.3974 70.2663L94.4188 70.2342L94.4399 70.2024L94.4608 70.1709L94.4815 70.1397L94.502 70.1089L94.5223 70.0784L94.5424 70.0481L94.5623 70.0182L94.582 69.9886L94.6014 69.9593L94.6207 69.9302L94.6398 69.9015L94.6587 69.8731L94.6774 69.845L94.6959 69.8172L94.7141 69.7897L94.7322 69.7624L94.7501 69.7355L94.7678 69.7088L94.7854 69.6825L94.8027 69.6564L94.8198 69.6306L94.8368 69.6051L94.8536 69.5799L94.8701 69.5549L94.8865 69.5302L94.9027 69.5058L94.9187 69.4817L94.9346 69.4579L94.9503 69.4343L94.9657 69.411L94.981 69.388L94.9962 69.3652L95.0111 69.3427L95.0259 69.3205L95.0405 69.2985L95.0549 69.2768L95.0691 69.2554L95.0832 69.2342L95.0971 69.2133L95.1109 69.1926L95.1244 69.1722L95.1378 69.152L95.1511 69.1321L95.1641 69.1124L95.1771 69.093L95.1898 69.0738L95.2024 69.0549L95.2148 69.0362L95.2271 69.0177L95.2392 68.9995L95.2511 68.9816L95.2629 68.9638L95.2745 68.9463L95.286 68.9291L95.2973 68.912L95.3085 68.8952L95.3195 68.8786L95.3303 68.8623L95.3411 68.8462L95.3516 68.8303L95.362 68.8146L95.3723 68.7991L95.3824 68.7839L95.3924 68.7689L95.4022 68.7541L95.4119 68.7395L95.4215 68.7251L95.4309 68.7109L95.4402 68.697L95.4493 68.6832L95.4583 68.6697L95.4672 68.6564L95.4759 68.6432L95.4845 68.6303L95.4929 68.6176L95.5013 68.605L95.5095 68.5927L95.5175 68.5806L95.5255 68.5686L95.5333 68.5569L95.541 68.5453L95.5485 68.534L95.5559 68.5228L95.5632 68.5118L95.5704 68.501L95.5775 68.4903L95.5844 68.4799L95.5912 68.4696L95.5979 68.4595L95.6045 68.4496L95.611 68.4399L95.6174 68.4303L95.6236 68.421L95.6297 68.4117L95.6357 68.4027L95.6416 68.3938L95.6474 68.3851L95.6531 68.3765L95.6587 68.3682L95.6641 68.3599L95.6695 68.3519L95.6748 68.344L95.6799 68.3362L95.6849 68.3286L95.6899 68.3212L95.6947 68.3139L95.6995 68.3067L95.7041 68.2997L95.7087 68.2929L95.7131 68.2862L95.7175 68.2796L95.7218 68.2732L95.7259 68.267L95.73 68.2608L95.734 68.2548L95.7379 68.249L95.7417 68.2432L95.7454 68.2377L95.749 68.2322L95.7526 68.2269L95.756 68.2217L95.7594 68.2166L95.7627 68.2116L95.7659 68.2068L95.769 68.2021L95.7721 68.1975L95.775 68.1931L95.7779 68.1887L95.7807 68.1845L95.7834 68.1804L95.7861 68.1764L95.7887 68.1725L95.7912 68.1687L95.7936 68.165L95.796 68.1615L95.7983 68.158L95.8005 68.1546L95.8027 68.1514L95.8048 68.1482L95.8068 68.1452L95.8088 68.1422L95.8107 68.1393L95.8126 68.1366L95.8143 68.1339L95.8161 68.1313L95.8177 68.1288L95.8193 68.1264L95.8209 68.1241L95.8224 68.1218L95.8238 68.1197L95.8252 68.1176L95.8265 68.1156L95.8278 68.1137L95.829 68.1118L95.8302 68.1101L95.8313 68.1084L95.8324 68.1067L95.8334 68.1052L95.8344 68.1037L95.8353 68.1023L95.8362 68.101L95.8371 68.0997L95.8379 68.0984L95.8387 68.0973L95.8394 68.0962L95.8401 68.0951L95.8407 68.0942L95.8414 68.0932L95.8419 68.0923L95.8425 68.0915L95.843 68.0907L95.8435 68.09L95.8439 68.0893L95.8444 68.0887L95.8448 68.0881L95.8451 68.0876L95.8455 68.087L95.8458 68.0866L95.8461 68.0861L95.8463 68.0857L95.8466 68.0854L95.8468 68.085L95.847 68.0848L95.8472 68.0845L95.8473 68.0842L95.8475 68.084L95.8476 68.0838L95.8477 68.0837L95.8478 68.0835L95.8479 68.0834L95.8479 68.0833L95.848 68.0831L95.8481 68.0831L95.8483 68.0828L95.8484 68.0827L95.8485 68.0825L95.8486 68.0824L95.8487 68.0822L95.8488 68.0821L95.8489 68.0819L95.849 68.0817L95.8492 68.0814L95.8494 68.0812L95.8496 68.0809L95.8498 68.0805L95.85 68.0802L95.8503 68.0798L95.8506 68.0794L95.8509 68.0789L95.8512 68.0784L95.8516 68.0778L95.852 68.0772L95.8524 68.0766L95.8529 68.0759L95.8533 68.0752L95.8539 68.0744L95.8544 68.0736L95.855 68.0727L95.8556 68.0718L95.8563 68.0708L95.857 68.0697L95.8577 68.0686L95.8585 68.0675L95.8593 68.0663L95.8601 68.065L95.861 68.0636L95.862 68.0622L95.8629 68.0607L95.864 68.0592L95.865 68.0576L95.8662 68.0559L95.8674 68.0541L95.8686 68.0523L95.8699 68.0503L95.8712 68.0483L95.8726 68.0463L95.874 68.0441L95.8755 68.0419L95.877 68.0395L95.8786 68.0371L95.8803 68.0346L95.882 68.032L95.8838 68.0294L95.8856 68.0266L95.8875 68.0237L95.8895 68.0208L95.8915 68.0177L95.8936 68.0145L95.8958 68.0113L95.898 68.0079L95.9003 68.0045L95.9027 68.0009L95.9051 67.9972L95.9077 67.9934L95.9102 67.9895L95.9129 67.9855L95.9156 67.9814L95.9184 67.9772L95.9213 67.9729L95.9243 67.9684L95.9273 67.9638L95.9305 67.9591L95.9337 67.9543L95.937 67.9493L95.9403 67.9443L95.9438 67.9391L95.9473 67.9337L95.951 67.9283L95.9547 67.9227L95.9585 67.917L95.9624 67.9111L95.9664 67.9051L95.9704 67.899L95.9746 67.8927L95.9789 67.8863L95.9832 67.8797L95.9877 67.873L95.9922 67.8662L95.9969 67.8592L96.0016 67.852L96.0064 67.8448L96.0114 67.8373L96.0164 67.8297L96.0216 67.822L96.0268 67.8141L96.0322 67.806L96.0377 67.7978L96.0432 67.7894L96.0489 67.7808L96.0547 67.7721L96.0606 67.7632L96.0666 67.7542L96.0728 67.745L96.079 67.7356L96.0854 67.726L96.0918 67.7163L96.0984 67.7064L96.1051 67.6963L96.1119 67.686L96.1189 67.6756L96.1259 67.665L96.1331 67.6541L96.1404 67.6431L96.1478 67.632L96.1554 67.6206L96.1631 67.609L96.1709 67.5973L96.1788 67.5853L96.1869 67.5732L96.1951 67.5609L96.2034 67.5483L96.2119 67.5356L96.2204 67.5227L96.2292 67.5096L96.238 67.4962L96.247 67.4827L96.2562 67.4689L96.2654 67.455L96.2748 67.4408L96.2844 67.4264L96.2941 67.4119L96.3039 67.3971L96.3139 67.382L96.324 67.3668L96.3343 67.3513L96.3447 67.3357L96.3553 67.3198L96.366 67.3036L96.3769 67.2873L96.3879 67.2707L96.3991 67.2539L96.4104 67.2369L96.4218 67.2196L96.4335 67.2021L96.4453 67.1844L96.4572 67.1664L96.4693 67.1482L96.4815 67.1297L96.494 67.1111L96.5066 67.0921L96.5193 67.0729L96.5322 67.0535L96.5453 67.0338L96.5585 67.0139L96.5719 66.9938L96.5855 66.9733L96.5992 66.9527L96.6131 66.9317L96.6272 66.9105L96.6415 66.8891L96.6559 66.8674L96.6705 66.8454L96.6852 66.8232L96.7002 66.8007L96.7153 66.7779L96.7306 66.7549L96.7461 66.7316L96.7618 66.708L96.7776 66.6842L96.7936 66.6601L96.8098 66.6357L96.8262 66.611L96.8428 66.5861L96.8596 66.5608L96.8765 66.5353L96.8937 66.5095L96.911 66.4835L96.9285 66.4571L96.9462 66.4304L96.9641 66.4035L96.9822 66.3763L97.0005 66.3487L97.019 66.3209L97.0377 66.2928L97.0565 66.2644L97.0756 66.2357L97.0949 66.2067L97.1144 66.1773L97.1341 66.1477L97.1539 66.1178L97.174 66.0876L97.1943 66.057L97.2148 66.0262L97.2355 65.995L97.2565 65.9635L97.2776 65.9317L97.2989 65.8996L97.3205 65.8672L97.3422 65.8345L97.3642 65.8014L97.3864 65.768L97.4088 65.7343L97.4314 65.7003L97.4542 65.6659L97.4773 65.6312L97.5005 65.5962L97.524 65.5608L97.5477 65.5251L97.5717 65.4891L97.5958 65.4527L97.6202 65.416L97.6449 65.379L97.6697 65.3416L97.6948 65.3039L97.7201 65.2658L97.7456 65.2274L97.7713 65.1886L97.7973 65.1495L97.8235 65.1101L97.85 65.0703L97.8767 65.0301L97.9036 64.9896L97.9308 64.9487L97.9582 64.9074L97.9858 64.8658L98.0137 64.8239L98.0418 64.7816L98.0702 64.7389L98.0988 64.6958L98.1277 64.6524L98.1568 64.6086L98.1861 64.5644L98.2157 64.5199L98.2455 64.475L98.2756 64.4297L98.306 64.384L98.3366 64.338L98.3674 64.2916L98.3985 64.2448L98.4299 64.1976L98.4615 64.15L98.4934 64.102L98.5255 64.0537L98.5579 64.0049L98.5905 63.9558L98.6234 63.9063L98.6566 63.8564L98.69 63.806L98.7237 63.7553L98.7367 63.7358C104.812 57.0649 113.186 55.085 123.403 52.6696C123.83 52.5684 124.262 52.4665 124.696 52.3634C129.968 51.1122 136.129 51.8063 142.591 53.1632C145.793 53.8356 149.052 54.6666 152.299 55.4948L152.369 55.5127C155.636 56.3457 158.89 57.1746 162.041 57.8273C163.549 58.1396 165.488 58.8953 167.798 60.0057C170.101 61.1131 172.745 62.5593 175.657 64.2341C178.568 65.9086 181.739 67.807 185.097 69.818L185.184 69.8703C188.515 71.8649 192.027 73.9682 195.642 76.067C202.934 80.3008 210.659 84.5237 218.19 87.8143C224.895 90.7439 231.471 92.9458 237.47 93.7494L186.508 112.133C183.953 110.536 179.814 108.072 175.219 105.335C174.1 104.669 172.954 103.987 171.797 103.297C165.752 99.691 159.406 95.8768 155.046 93.0619L155.017 93.0433L154.986 93.0288C150.894 91.1192 146.938 89.2094 144.005 87.7767C142.538 87.0604 141.327 86.4635 140.483 86.0458C140.061 85.8369 139.731 85.6728 139.506 85.561L139.25 85.4334L139.184 85.4007L139.168 85.3924L139.164 85.3904L139.163 85.3899L139.162 85.3897Z" fill="#C18318" stroke="#463009"/>
<path d="M530.259 87.8263L530.483 88.2735L530.259 87.8262L530.365 87.7735L530.46 87.7735C530.463 87.7731 530.466 87.7727 530.47 87.7721C530.505 87.7677 530.574 87.758 530.705 87.7371C530.967 87.6953 531.462 87.6107 532.393 87.4404C534.251 87.0999 537.834 86.4187 544.729 85.0557L553.722 82.6707L554.848 82.3721L554.988 82.3348L555.006 82.3301L555.008 82.3295L555.008 82.3294L555.008 82.3294L555.009 82.3293L555.011 82.3288L555.029 82.3241L555.169 82.2868L556.295 81.9881L565.259 79.611L575.94 74.5248C573.471 72.6938 571.924 71.8745 570.934 71.5549C570.404 71.3835 570.057 71.3639 569.827 71.3924C569.606 71.42 569.458 71.4961 569.321 71.5856C569.284 71.6097 569.249 71.6345 569.21 71.6621L569.2 71.6689C569.165 71.6935 569.124 71.722 569.084 71.7486C568.998 71.805 568.876 71.8791 568.727 71.9204C568.36 72.0214 568.037 71.8807 567.747 71.6408C567.471 71.4122 567.146 71.0311 566.724 70.4634C566.315 69.9144 565.796 69.1613 565.117 68.1433C559.793 66.606 557.292 64.3908 554.893 62.2672L554.775 62.1626C552.356 60.0208 549.995 57.9824 544.726 56.732C539.426 55.4743 533.375 55.6356 527.056 56.4462C521.624 57.143 516.029 58.3141 510.571 59.4563C509.679 59.6429 508.791 59.8287 507.909 60.0116C504.828 60.6496 499.714 62.5891 493.562 65.277C487.423 67.9589 480.29 71.3675 473.189 74.9201C459.577 81.731 446.111 89.0572 440.022 92.7887L482.947 114.549C485.505 112.951 489.627 110.497 494.203 107.772C495.322 107.106 496.468 106.423 497.625 105.733C503.67 102.128 510.016 98.3134 514.376 95.4984L514.405 95.4799L514.436 95.4654C518.528 93.5558 522.484 91.6459 525.417 90.2133C526.884 89.497 528.095 88.9001 528.939 88.4823C529.361 88.2735 529.691 88.1094 529.916 87.9975L530.172 87.8699L530.237 87.8372L530.254 87.829L530.258 87.8269L530.259 87.8264L530.259 87.8263Z" fill="#C18318" stroke="#463009"/>
<path d="M105.787 257.236L105.798 257.012L105.799 256.788C105.941 209.53 132.112 164.944 174.306 131.836C216.456 98.7624 273.862 77.8165 334.433 77.8165C403.169 77.8165 456.643 97.7386 494.652 129.865C532.672 162.001 555.9 206.92 563.165 258.162C569.092 299.96 549.856 339.446 509.712 370.055C469.438 400.763 408.594 421.98 333.911 425.883C263.992 429.538 205.509 412.159 165.399 381.648C125.459 351.266 103.371 307.676 105.787 257.236Z" stroke="#463009" stroke-width="20"/>
<path d="M551.508 214.677C608.907 76.4108 571.534 14.4896 424.218 95.9495" stroke="#463009" stroke-width="20"/>
<path d="M480.349 117.729C516.435 90.0456 539 83.0014 574.365 83.1822" stroke="#463009" stroke-width="20"/>
<path d="M183.661 116.634C148.96 87.2334 126.763 79.1037 91.4303 77.5697" stroke="#463009" stroke-width="20"/>
<path d="M307.675 295.96C330.364 285.342 342.485 288.052 362.283 295.96" stroke="#463009" stroke-width="20" stroke-linecap="round"/>
<path d="M450.88 296.859C474.057 291.645 488.444 292.821 513.204 301.543" stroke="#463009" stroke-width="20" stroke-linecap="round"/>
<path d="M218.579 297.405C195.401 292.191 181.014 293.367 156.254 302.089" stroke="#463009" stroke-width="20" stroke-linecap="round"/>
<path d="M228.577 326.502C204.945 328.93 191.679 334.621 170.979 350.764" stroke="#463009" stroke-width="20" stroke-linecap="round"/>
<path d="M442.009 326.502C465.642 328.93 478.908 334.621 499.608 350.764" stroke="#463009" stroke-width="20" stroke-linecap="round"/>
<circle cx="248.699" cy="251.843" r="26.8036" fill="#463009" stroke="#463009"/>
<circle cx="420.166" cy="251.843" r="26.8036" fill="#463009" stroke="#463009"/>
<path d="M339.336 74.3231L339.336 74.3233H339.348C466.072 74.3233 556.748 153.865 570.382 266.065C569.009 320.438 537.817 361.515 491.075 389.022C444.314 416.542 382.021 430.454 318.603 430.455C245.778 428.818 191.159 410.202 154.754 379.819C118.36 349.444 100.122 307.27 100.122 258.396C100.122 160.751 203.545 71.0511 339.336 74.3231Z" fill="#C18318" stroke="#463009"/>
<path d="M164.876 103.184L184.552 117.542L144.618 152.079L144.566 152.125L144.527 152.183L111.791 202.093L102.831 174.156L93.0129 139.248L88.1139 104.956L92.9332 76.5757L117.512 80.3159L142.543 90.1106L164.876 103.184Z" fill="#F9E4E9" stroke="#463009"/>
<path d="M502.898 105.368L483.221 119.727L523.155 154.264L523.208 154.309L523.246 154.368L555.982 204.277L564.943 176.341L574.761 141.433L579.66 107.14L574.84 78.76L550.262 82.5002L525.231 92.2949L502.898 105.368Z" fill="#F9E4E9" stroke="#463009"/>
<path d="M139.162 85.3896L138.939 85.8368L139.162 85.3896L139.057 85.3368L138.962 85.3368C138.959 85.3364 138.956 85.336 138.951 85.3355C138.917 85.3311 138.847 85.3213 138.717 85.3004C138.455 85.2586 137.959 85.1741 137.029 85.0037C135.171 84.6633 131.588 83.982 124.693 82.619L115.7 80.234L114.574 79.9354L114.434 79.8981L114.416 79.8934L114.414 79.8928L114.413 79.8928L114.413 79.8927L114.413 79.8927L114.411 79.8921L114.393 79.8874L114.253 79.8501L113.127 79.5515L104.163 77.1743L93.2578 71.9813L93.2665 71.9682L93.2978 71.9211L93.3289 71.8742L93.3598 71.8278L93.3904 71.7818L93.4207 71.7361L93.4508 71.6908L93.4807 71.6459L93.5102 71.6014L93.5396 71.5572L93.5687 71.5134L93.5975 71.47L93.6262 71.4269L93.6545 71.3842L93.6826 71.3419L93.7105 71.3L93.7382 71.2584L93.7656 71.2171L93.7927 71.1762L93.8197 71.1357L93.8463 71.0955L93.8728 71.0557L93.899 71.0163L93.925 70.9771L93.9508 70.9384L93.9763 70.9L94.0016 70.8619L94.0267 70.8242L94.0515 70.7868L94.0761 70.7498L94.1005 70.7131L94.1247 70.6767L94.1486 70.6407L94.1723 70.605L94.1958 70.5696L94.2191 70.5346L94.2421 70.4999L94.265 70.4655L94.2876 70.4315L94.31 70.3978L94.3322 70.3644L94.3541 70.3313L94.3759 70.2986L94.3974 70.2662L94.4188 70.2341L94.4399 70.2023L94.4608 70.1708L94.4815 70.1396L94.502 70.1088L94.5223 70.0782L94.5424 70.048L94.5623 70.0181L94.582 69.9885L94.6014 69.9591L94.6207 69.9301L94.6398 69.9014L94.6587 69.873L94.6774 69.8449L94.6959 69.8171L94.7141 69.7895L94.7322 69.7623L94.7501 69.7354L94.7678 69.7087L94.7854 69.6823L94.8027 69.6563L94.8198 69.6305L94.8368 69.605L94.8536 69.5797L94.8701 69.5548L94.8865 69.5301L94.9027 69.5057L94.9187 69.4816L94.9346 69.4578L94.9503 69.4342L94.9657 69.4109L94.981 69.3879L94.9962 69.3651L95.0111 69.3426L95.0259 69.3204L95.0405 69.2984L95.0549 69.2767L95.0691 69.2553L95.0832 69.2341L95.0971 69.2131L95.1109 69.1925L95.1244 69.172L95.1378 69.1519L95.1511 69.132L95.1641 69.1123L95.1771 69.0929L95.1898 69.0737L95.2024 69.0547L95.2148 69.0361L95.2271 69.0176L95.2392 68.9994L95.2511 68.9814L95.2629 68.9637L95.2745 68.9462L95.286 68.9289L95.2973 68.9119L95.3085 68.8951L95.3195 68.8785L95.3303 68.8622L95.3411 68.846L95.3516 68.8301L95.362 68.8145L95.3723 68.799L95.3824 68.7838L95.3924 68.7688L95.4022 68.7539L95.4119 68.7394L95.4215 68.725L95.4309 68.7108L95.4402 68.6969L95.4493 68.6831L95.4583 68.6696L95.4672 68.6562L95.4759 68.6431L95.4845 68.6302L95.4929 68.6175L95.5013 68.6049L95.5095 68.5926L95.5175 68.5805L95.5255 68.5685L95.5333 68.5568L95.541 68.5452L95.5485 68.5338L95.5559 68.5227L95.5632 68.5117L95.5704 68.5009L95.5775 68.4902L95.5844 68.4798L95.5912 68.4695L95.5979 68.4594L95.6045 68.4495L95.611 68.4398L95.6174 68.4302L95.6236 68.4208L95.6297 68.4116L95.6357 68.4026L95.6416 68.3937L95.6474 68.385L95.6531 68.3764L95.6587 68.368L95.6641 68.3598L95.6695 68.3517L95.6748 68.3438L95.6799 68.3361L95.6849 68.3285L95.6899 68.321L95.6947 68.3137L95.6995 68.3066L95.7041 68.2996L95.7087 68.2928L95.7131 68.2861L95.7175 68.2795L95.7218 68.2731L95.7259 68.2668L95.73 68.2607L95.734 68.2547L95.7379 68.2489L95.7417 68.2431L95.7454 68.2375L95.749 68.2321L95.7526 68.2267L95.756 68.2215L95.7594 68.2165L95.7627 68.2115L95.7659 68.2067L95.769 68.202L95.7721 68.1974L95.775 68.1929L95.7779 68.1886L95.7807 68.1844L95.7834 68.1803L95.7861 68.1762L95.7887 68.1724L95.7912 68.1686L95.7936 68.1649L95.796 68.1613L95.7983 68.1579L95.8005 68.1545L95.8027 68.1513L95.8048 68.1481L95.8068 68.145L95.8088 68.1421L95.8107 68.1392L95.8126 68.1364L95.8143 68.1338L95.8161 68.1312L95.8177 68.1287L95.8193 68.1263L95.8209 68.1239L95.8224 68.1217L95.8238 68.1195L95.8252 68.1175L95.8265 68.1155L95.8278 68.1135L95.829 68.1117L95.8302 68.1099L95.8313 68.1082L95.8324 68.1066L95.8334 68.1051L95.8344 68.1036L95.8353 68.1022L95.8362 68.1008L95.8371 68.0995L95.8379 68.0983L95.8387 68.0972L95.8394 68.0961L95.8401 68.095L95.8407 68.094L95.8414 68.0931L95.8419 68.0922L95.8425 68.0914L95.843 68.0906L95.8435 68.0899L95.8439 68.0892L95.8444 68.0886L95.8448 68.088L95.8451 68.0874L95.8455 68.0869L95.8458 68.0864L95.8461 68.086L95.8463 68.0856L95.8466 68.0853L95.8468 68.0849L95.847 68.0846L95.8472 68.0844L95.8473 68.0841L95.8475 68.0839L95.8476 68.0837L95.8477 68.0836L95.8478 68.0834L95.8479 68.0833L95.8479 68.0832L95.848 68.083L95.8481 68.0829L95.8483 68.0827L95.8484 68.0826L95.8485 68.0824L95.8486 68.0823L95.8487 68.0821L95.8488 68.082L95.8489 68.0818L95.849 68.0816L95.8492 68.0813L95.8494 68.0811L95.8496 68.0807L95.8498 68.0804L95.85 68.0801L95.8503 68.0797L95.8506 68.0792L95.8509 68.0788L95.8512 68.0783L95.8516 68.0777L95.852 68.0771L95.8524 68.0765L95.8529 68.0758L95.8533 68.0751L95.8539 68.0743L95.8544 68.0735L95.855 68.0726L95.8556 68.0717L95.8563 68.0707L95.857 68.0696L95.8577 68.0685L95.8585 68.0674L95.8593 68.0661L95.8601 68.0649L95.861 68.0635L95.862 68.0621L95.8629 68.0606L95.864 68.0591L95.865 68.0574L95.8662 68.0557L95.8674 68.054L95.8686 68.0521L95.8699 68.0502L95.8712 68.0482L95.8726 68.0461L95.874 68.044L95.8755 68.0417L95.877 68.0394L95.8786 68.037L95.8803 68.0345L95.882 68.0319L95.8838 68.0292L95.8856 68.0265L95.8875 68.0236L95.8895 68.0206L95.8915 68.0176L95.8936 68.0144L95.8958 68.0112L95.898 68.0078L95.9003 68.0043L95.9027 68.0008L95.9051 67.9971L95.9077 67.9933L95.9102 67.9894L95.9129 67.9854L95.9156 67.9813L95.9184 67.9771L95.9213 67.9727L95.9243 67.9683L95.9273 67.9637L95.9305 67.959L95.9337 67.9542L95.937 67.9492L95.9403 67.9441L95.9438 67.9389L95.9473 67.9336L95.951 67.9281L95.9547 67.9226L95.9585 67.9168L95.9624 67.911L95.9664 67.905L95.9704 67.8988L95.9746 67.8926L95.9789 67.8862L95.9832 67.8796L95.9877 67.8729L95.9922 67.8661L95.9969 67.8591L96.0016 67.8519L96.0064 67.8446L96.0114 67.8372L96.0164 67.8296L96.0216 67.8218L96.0268 67.8139L96.0322 67.8059L96.0377 67.7976L96.0432 67.7893L96.0489 67.7807L96.0547 67.772L96.0606 67.7631L96.0666 67.7541L96.0728 67.7448L96.079 67.7355L96.0854 67.7259L96.0918 67.7162L96.0984 67.7062L96.1051 67.6962L96.1119 67.6859L96.1189 67.6755L96.1259 67.6648L96.1331 67.654L96.1404 67.643L96.1478 67.6318L96.1554 67.6205L96.1631 67.6089L96.1709 67.5972L96.1788 67.5852L96.1869 67.5731L96.1951 67.5608L96.2034 67.5482L96.2119 67.5355L96.2204 67.5226L96.2292 67.5094L96.238 67.4961L96.247 67.4826L96.2562 67.4688L96.2654 67.4549L96.2748 67.4407L96.2844 67.4263L96.2941 67.4117L96.3039 67.3969L96.3139 67.3819L96.324 67.3667L96.3343 67.3512L96.3447 67.3355L96.3553 67.3196L96.366 67.3035L96.3769 67.2872L96.3879 67.2706L96.3991 67.2538L96.4104 67.2368L96.4218 67.2195L96.4335 67.202L96.4453 67.1842L96.4572 67.1663L96.4693 67.1481L96.4815 67.1296L96.494 67.1109L96.5066 67.092L96.5193 67.0728L96.5322 67.0534L96.5453 67.0337L96.5585 67.0138L96.5719 66.9936L96.5855 66.9732L96.5992 66.9525L96.6131 66.9316L96.6272 66.9104L96.6415 66.889L96.6559 66.8673L96.6705 66.8453L96.6852 66.8231L96.7002 66.8006L96.7153 66.7778L96.7306 66.7548L96.7461 66.7315L96.7618 66.7079L96.7776 66.6841L96.7936 66.66L96.8098 66.6356L96.8262 66.6109L96.8428 66.5859L96.8596 66.5607L96.8765 66.5352L96.8937 66.5094L96.911 66.4833L96.9285 66.457L96.9462 66.4303L96.9641 66.4034L96.9822 66.3761L97.0005 66.3486L97.019 66.3208L97.0377 66.2927L97.0565 66.2643L97.0756 66.2355L97.0949 66.2065L97.1144 66.1772L97.1341 66.1476L97.1539 66.1177L97.174 66.0874L97.1943 66.0569L97.2148 66.0261L97.2355 65.9949L97.2565 65.9634L97.2776 65.9316L97.2989 65.8995L97.3205 65.8671L97.3422 65.8343L97.3642 65.8013L97.3864 65.7679L97.4088 65.7342L97.4314 65.7001L97.4542 65.6658L97.4773 65.6311L97.5005 65.5961L97.524 65.5607L97.5477 65.525L97.5717 65.489L97.5958 65.4526L97.6202 65.4159L97.6449 65.3789L97.6697 65.3415L97.6948 65.3038L97.7201 65.2657L97.7456 65.2273L97.7713 65.1885L97.7973 65.1494L97.8235 65.11L97.85 65.0701L97.8767 65.03L97.9036 64.9894L97.9308 64.9486L97.9582 64.9073L97.9858 64.8657L98.0137 64.8238L98.0418 64.7814L98.0702 64.7387L98.0988 64.6957L98.1277 64.6523L98.1568 64.6085L98.1861 64.5643L98.2157 64.5198L98.2455 64.4749L98.2756 64.4296L98.306 64.3839L98.3366 64.3379L98.3674 64.2914L98.3985 64.2446L98.4299 64.1974L98.4615 64.1499L98.4934 64.1019L98.5255 64.0535L98.5579 64.0048L98.5905 63.9557L98.6234 63.9061L98.6566 63.8562L98.69 63.8059L98.7237 63.7552L98.7367 63.7357C104.812 57.0648 113.186 55.0849 123.403 52.6695C123.83 52.5683 124.262 52.4664 124.696 52.3633C129.968 51.1121 136.129 51.8062 142.591 53.163C145.793 53.8355 149.052 54.6665 152.299 55.4946L152.369 55.5126C155.636 56.3455 158.89 57.1745 162.041 57.8271C163.549 58.1395 165.488 58.8952 167.798 60.0056C170.101 61.113 172.745 62.5592 175.657 64.234C178.568 65.9084 181.739 67.8069 185.097 69.8178L185.184 69.8702C188.515 71.8648 192.027 73.968 195.642 76.0669C202.934 80.3007 210.659 84.5236 218.19 87.8142C224.895 90.7438 231.471 92.9457 237.47 93.7493L186.508 112.133C183.953 110.536 179.814 108.072 175.219 105.335C174.1 104.669 172.954 103.986 171.797 103.297C165.752 99.6909 159.406 95.8767 155.046 93.0617L155.017 93.0432L154.986 93.0287C150.894 91.1191 146.938 89.2092 144.005 87.7766C142.538 87.0603 141.327 86.4634 140.483 86.0457C140.061 85.8368 139.731 85.6727 139.506 85.5609L139.25 85.4332L139.184 85.4006L139.168 85.3923L139.164 85.3902L139.163 85.3897L139.162 85.3896Z" fill="#C18318" stroke="#463009"/>
<path d="M530.259 87.8262L530.483 88.2733L530.259 87.8261L530.365 87.7733L530.46 87.7733C530.463 87.773 530.466 87.7725 530.47 87.772C530.505 87.7676 530.574 87.7579 530.705 87.7369C530.967 87.6952 531.462 87.6106 532.393 87.4402C534.251 87.0998 537.834 86.4185 544.729 85.0555L553.722 82.6706L554.848 82.372L554.988 82.3346L555.006 82.33L555.008 82.3294L555.008 82.3293L555.008 82.3293L555.009 82.3292L555.011 82.3286L555.029 82.324L555.169 82.2866L556.295 81.988L565.259 79.6109L575.94 74.5247C573.471 72.6937 571.924 71.8743 570.934 71.5547C570.404 71.3834 570.057 71.3638 569.827 71.3923C569.606 71.4198 569.458 71.496 569.321 71.5855C569.284 71.6096 569.249 71.6343 569.21 71.662L569.2 71.6688C569.165 71.6934 569.124 71.7219 569.084 71.7485C568.998 71.8049 568.876 71.879 568.727 71.9202C568.36 72.0212 568.037 71.8806 567.747 71.6407C567.471 71.4121 567.146 71.0309 566.724 70.4633C566.315 69.9143 565.796 69.1612 565.117 68.1432C559.793 66.6059 557.292 64.3906 554.893 62.2671L554.775 62.1625C552.356 60.0207 549.995 57.9822 544.726 56.7319C539.426 55.4742 533.375 55.6355 527.056 56.4461C521.624 57.1428 516.029 58.3139 510.571 59.4562C509.679 59.6428 508.791 59.8286 507.909 60.0115C504.828 60.6495 499.714 62.5889 493.562 65.2769C487.423 67.9588 480.29 71.3674 473.189 74.92C459.577 81.7308 446.111 89.0571 440.022 92.7886L482.947 114.549C485.505 112.951 489.627 110.497 494.203 107.772C495.322 107.105 496.468 106.423 497.625 105.733C503.67 102.127 510.016 98.3133 514.376 95.4983L514.405 95.4797L514.436 95.4653C518.528 93.5557 522.484 91.6458 525.417 90.2131C526.884 89.4968 528.095 88.9 528.939 88.4822C529.361 88.2733 529.691 88.1093 529.916 87.9974L530.172 87.8698L530.237 87.8371L530.254 87.8289L530.258 87.8268L530.259 87.8263L530.259 87.8262Z" fill="#C18318" stroke="#463009"/>
<path d="M105.787 257.236L105.798 257.012L105.799 256.788C105.941 209.53 132.112 164.944 174.306 131.836C216.456 98.7622 273.862 77.8164 334.433 77.8164C403.169 77.8164 456.643 97.7385 494.652 129.865C532.672 162.001 555.9 206.92 563.165 258.162C569.092 299.96 549.856 339.446 509.712 370.055C469.438 400.763 408.594 421.979 333.911 425.883C263.992 429.538 205.509 412.159 165.399 381.647C125.459 351.266 103.371 307.676 105.787 257.236Z" stroke="#463009" stroke-width="20"/>
<path d="M110.795 212.961C56.3856 69.7809 97.8918 13.4636 243.306 98.0496" stroke="#463009" stroke-width="20"/>
<path d="M551.534 211.571C608.932 73.3048 571.56 11.3837 424.244 92.8436" stroke="#463009" stroke-width="20"/>
<path d="M480.349 117.729C516.435 90.0453 539 83.0012 574.365 83.1819" stroke="#463009" stroke-width="20"/>
<path d="M183.661 116.634C148.96 87.2332 126.763 79.1034 91.4304 77.5695" stroke="#463009" stroke-width="20"/>
<path d="M450.88 296.859C474.057 291.645 488.444 292.821 513.204 301.543" stroke="#463009" stroke-width="20" stroke-linecap="round"/>
<path d="M218.579 297.405C195.401 292.191 181.014 293.367 156.254 302.089" stroke="#463009" stroke-width="20" stroke-linecap="round"/>
<path d="M228.577 326.502C204.945 328.93 191.679 334.62 170.979 350.764" stroke="#463009" stroke-width="20" stroke-linecap="round"/>
<path d="M442.009 326.502C465.642 328.93 478.908 334.62 499.608 350.764" stroke="#463009" stroke-width="20" stroke-linecap="round"/>
<circle cx="248.699" cy="251.843" r="26.8036" fill="#463009" stroke="#463009"/>
<circle cx="420.166" cy="251.843" r="26.8036" fill="#463009" stroke="#463009"/>
<path d="M330.5 213.5C409 213.5 448.5 111 448.5 111L435.5 105L423.5 101L411 97L397 94L378 90.5L353.5 87.5L330.5 87L313.5 88L292.5 91L274.5 94L246 103L218 115C218 115 260 213.5 330.5 213.5Z" fill="#69470D"/>
<path d="M310 295.395C330.774 285.673 341.873 288.154 360 295.395" stroke="#463009" stroke-width="20" stroke-linecap="round"/>
<rect x="229" y="375" width="212" height="260" rx="26" fill="#E3F6FF" stroke="#004C6F" stroke-width="20"/>
<path d="M274 545H396" stroke="#004C6F" stroke-width="25" stroke-linecap="round"/>
<path d="M274 589H396" stroke="#004C6F" stroke-width="25" stroke-linecap="round"/>
<path d="M274 461H298" stroke="#004C6F" stroke-width="25" stroke-linecap="round"/>
<path d="M274 505H279" stroke="#004C6F" stroke-width="25" stroke-linecap="round"/>
<path d="M320 505H349" stroke="#004C6F" stroke-width="25" stroke-linecap="round"/>
<path d="M391 505H396" stroke="#004C6F" stroke-width="25" stroke-linecap="round"/>
<path d="M350 461H396" stroke="#004C6F" stroke-width="25" stroke-linecap="round"/>
<path d="M335 397V351" stroke="#004C6F" stroke-width="25" stroke-linecap="round"/>
<path d="M396 397V351" stroke="#004C6F" stroke-width="25" stroke-linecap="round"/>
<path d="M274 400V354" stroke="#004C6F" stroke-width="25" stroke-linecap="round"/>
<circle cx="219" cy="482" r="27.5" fill="#C18318" stroke="#463009" stroke-width="15"/>
<circle cx="451" cy="482" r="27.5" fill="#C18318" stroke="#463009" stroke-width="15"/>
</svg>
