<svg width="662" height="664" viewBox="0 0 662 664" fill="none" xmlns="http://www.w3.org/2000/svg">
<g clip-path="url(#clip0_47_150)">
<path d="M568.882 232.041C566.152 341.256 443.565 396.955 316.597 396.955C170.795 393.679 97.6215 322.412 97.6215 224.396C97.6215 126.38 201.375 36.5468 337.347 39.8233C464.316 39.8233 555.231 119.55 568.882 232.041Z" fill="#E0E5E8"/>
<path d="M173.834 88.8267C198.3 76.3541 215.199 57.4677 229.988 71.9618C266.697 107.94 287.61 157.027 288.127 208.425C288.644 259.823 268.723 309.321 232.744 346.03C217.025 362.069 203.014 376.204 203.014 376.204L169.157 355.453L142.162 334.013L125.091 313.263L110.22 286.753L96.7878 256.531L96.7879 236.812L100.115 214.423L106.121 187.666L117.589 159.816L128.51 141.25L138.523 123.17L173.834 88.8267Z" fill="#B9C4CC"/>
<path d="M490.248 87.3316C465.783 74.859 448.884 55.9726 434.095 70.4667C397.386 106.445 376.472 155.532 375.955 206.93C375.438 258.328 395.36 307.826 431.338 344.535C447.057 360.574 457.484 371.836 457.484 371.836L495.163 351.085L521.92 332.518L538.991 311.768L553.862 285.258L567.295 255.036L567.295 235.317L563.968 212.928L557.961 186.171L546.494 158.321L535.572 139.755L525.559 121.675L490.248 87.3316Z" fill="#B9C4CC"/>
<path d="M200.829 375.658C198.099 395.863 199.174 419.335 200.829 438.457C202.483 457.578 209.008 496.34 219.396 515.453C233.048 540.572 251.726 562.831 269.088 572.791C286.45 582.75 308.222 588.639 328.064 589.719C347.906 590.799 373.772 580.845 391.409 572.791C409.045 564.736 429.289 537.839 440.555 522.552C451.822 507.264 464.532 459.551 466.767 440.641C469.002 421.731 470.043 388.013 466.767 368.559L403.968 387.672L364.651 395.863L325.334 398.593L287.655 398.593L236.324 387.672L200.829 375.658Z" fill="#FCE8BC"/>
<path d="M90.5226 42.0076L115.642 45.8301L140.761 55.6594L163.15 68.7651L183.355 83.5091L142.946 118.458L109.635 169.243L100.352 140.301L90.5226 105.352L85.6079 70.9494L90.5226 42.0076Z" fill="#F9E4E9"/>
<path d="M573.251 44.1919L548.132 48.0144L523.012 57.8437L500.623 70.9495L480.418 85.6934L520.828 120.642L554.138 171.427L563.422 142.485L573.251 107.536L578.166 73.1338L573.251 44.1919Z" fill="#F9E4E9"/>
<path d="M90.5222 38.1851C96.3412 29.4276 90.5222 38.1851 96.3412 29.4276C102.798 22.3167 111.809 20.4332 122.58 17.8771C133.351 15.3209 147.591 20.738 160.143 23.3378C172.695 25.9376 211.743 57.4818 237.685 59.482L184.449 78.6863C178.189 74.7571 161.512 65.1232 152.775 59.482C144.584 55.6595 136.939 51.837 136.939 51.837C136.939 51.837 136.393 51.837 122.58 49.1066C101.99 43.6459 122.58 49.1066 101.99 43.6459L90.5222 38.1851Z" fill="#E0E5E8"/>
<path d="M574.9 40.6216C563.432 31.8641 569.251 42.4706 563.432 33.7131C552.581 30.6474 553.612 24.8017 542.841 22.2455C532.07 19.6894 518.359 22.9222 505.807 25.522C493.255 28.1217 448.384 51.6881 437.002 58.8324L480.973 81.1227C487.233 77.1935 503.91 67.5597 512.647 61.9185C520.838 58.096 528.483 54.2735 528.483 54.2735C528.483 54.2735 529.029 54.2735 542.841 51.5431C563.432 46.0824 542.841 51.5431 563.432 46.0824L574.9 40.6216Z" fill="#E0E5E8"/>
<path d="M103.787 223.236L103.798 223.012L103.799 222.788C103.941 175.53 130.112 130.944 172.306 97.8363C214.456 64.7624 271.862 43.8165 332.433 43.8165C401.169 43.8165 454.643 63.7386 492.652 95.8649C530.672 128.001 553.9 172.92 561.165 224.162C567.092 265.96 547.856 305.446 507.712 336.055C467.438 366.763 406.594 387.98 331.911 391.883C261.992 395.538 203.509 378.159 163.399 347.648C123.459 317.266 101.371 273.676 103.787 223.236Z" stroke="#656565" stroke-width="20"/>
<path d="M108.979 178.974C54.5699 35.7947 96.0762 -20.5226 241.49 64.0634" stroke="#656565" stroke-width="20"/>
<path d="M549.508 180.677C606.907 42.4108 569.534 -19.5104 422.218 61.9495" stroke="#656565" stroke-width="20"/>
<path d="M478.349 83.729C514.435 56.0454 537 49.0013 572.365 49.1821" stroke="#656565" stroke-width="20"/>
<path d="M181.661 82.6338C146.96 53.2333 124.763 45.1035 89.4303 43.5696" stroke="#656565" stroke-width="20"/>
<path d="M448.88 262.859C472.057 257.645 486.444 258.821 511.204 267.543" stroke="#656565" stroke-width="20" stroke-linecap="round"/>
<path d="M216.579 263.405C193.401 258.191 179.014 259.367 154.254 268.089" stroke="#656565" stroke-width="20" stroke-linecap="round"/>
<path d="M226.577 292.502C202.945 294.93 189.679 300.621 168.978 316.764" stroke="#656565" stroke-width="20" stroke-linecap="round"/>
<path d="M440.009 292.502C463.642 294.93 476.908 300.621 497.608 316.764" stroke="#656565" stroke-width="20" stroke-linecap="round"/>
<path d="M200.973 377.694C177.529 672.522 495.778 647.766 465.246 364.191" stroke="#656565" stroke-width="15"/>
<circle cx="246.699" cy="217.843" r="27.3036" fill="#656565"/>
<circle cx="418.166" cy="217.843" r="27.3036" fill="#656565"/>
<circle cx="331" cy="422" r="164.5" fill="#F9E4E9" stroke="#5C2231" stroke-width="25"/>
<path d="M329 259C441.95 314.382 442.716 533.715 329 588" stroke="#5C2231" stroke-width="25"/>
<path d="M329 259C216.05 314.382 215.284 533.715 329 588" stroke="#5C2231" stroke-width="25"/>
<line x1="174" y1="487.5" x2="483" y2="487.5" stroke="#5C2231" stroke-width="25"/>
<line x1="182" y1="346.5" x2="478" y2="346.5" stroke="#5C2231" stroke-width="25"/>
<circle cx="500" cy="408" r="35" fill="#E0E5E8" stroke="#656565" stroke-width="25"/>
<circle cx="150" cy="408" r="35" fill="#E0E5E8" stroke="#656565" stroke-width="25"/>
<circle cx="453" cy="553" r="35" fill="#E0E5E8" stroke="#656565" stroke-width="25"/>
<circle cx="203" cy="553" r="35" fill="#E0E5E8" stroke="#656565" stroke-width="25"/>
</g>
<defs>
<clipPath id="clip0_47_150">
<rect width="662" height="664" fill="white"/>
</clipPath>
</defs>
</svg>
