<svg width="662" height="664" viewBox="0 0 662 664" fill="none" xmlns="http://www.w3.org/2000/svg">
<g clip-path="url(#clip0_47_528)">
<path d="M219.829 368.736C217.753 384.429 219.238 402.74 221.161 417.672C223.085 432.603 229.893 462.931 239.827 478.02C252.884 497.85 270.491 515.546 286.63 523.633C302.768 531.72 322.866 536.717 341.092 537.931C359.317 539.145 382.834 531.875 398.842 525.929C414.851 519.984 432.851 499.404 442.862 487.703C452.873 476.002 463.521 439.06 465.17 424.366C466.819 409.673 467.059 383.418 463.641 368.197L406.437 381.911L370.543 387.556L334.532 388.946L299.967 388.238L252.646 378.764L219.829 368.736Z" fill="#E5A22E"/>
<path d="M219.13 381.821C197.676 610.998 489.05 582.43 461.11 362" stroke="#5C2231" stroke-width="20"/>
<path d="M92.5226 52.0078L117.642 55.8303L142.761 65.6596L165.15 78.7654L185.355 93.5094L144.946 128.458L111.635 179.243L102.352 150.301L92.5226 115.352L87.6079 80.9497L92.5226 52.0078Z" fill="#F9E4E9"/>
<path d="M575.251 54.1919L550.132 58.0144L525.012 67.8437L502.623 80.9495L482.418 95.6934L522.828 130.642L556.138 181.427L565.422 152.485L575.251 117.536L580.166 83.1338L575.251 54.1919Z" fill="#F9E4E9"/>
<path d="M92.5222 48.1851C98.3412 39.4276 92.5222 48.1851 98.3412 39.4276C104.798 32.3167 113.809 30.4332 124.58 27.8771C135.351 25.3209 149.591 30.738 162.143 33.3378C174.695 35.9376 213.743 67.4818 239.685 69.482L186.449 88.6863C180.189 84.7571 163.512 75.1232 154.775 69.482C146.584 65.6595 138.939 61.837 138.939 61.837C138.939 61.837 138.393 61.837 124.58 59.1066C103.99 53.6459 124.58 59.1066 103.99 53.6459L92.5222 48.1851Z" fill="#E5A22E" fill-opacity="0.909804"/>
<path d="M576.9 50.6216C565.432 41.8641 571.251 52.4706 565.432 43.7131C554.581 40.6474 555.612 34.8017 544.841 32.2455C534.07 29.6894 520.359 32.9222 507.807 35.522C495.255 38.1217 450.384 61.6881 439.002 68.8324L482.973 91.1227C489.233 87.1935 505.91 77.5597 514.647 71.9185C522.838 68.096 530.483 64.2735 530.483 64.2735C530.483 64.2735 531.029 64.2735 544.841 61.5431C565.432 56.0824 544.841 61.5431 565.432 56.0824L576.9 50.6216Z" fill="#E5A22E" fill-opacity="0.909804"/>
<path d="M105.787 233.236L105.798 233.012L105.799 232.788C105.941 185.53 132.112 140.944 174.306 107.836C216.456 74.7622 273.862 53.8164 334.433 53.8164C403.169 53.8164 456.643 73.7385 494.652 105.865C532.672 138.001 555.9 182.92 563.165 234.161C569.092 275.96 549.856 315.446 509.712 346.055C469.438 376.763 408.594 397.979 333.911 401.883C263.992 405.538 205.509 388.159 165.399 357.647C125.459 327.266 103.371 283.676 105.787 233.236Z" fill="#E5A22E" fill-opacity="0.909804" stroke="#5C2231" stroke-width="20"/>
<path d="M110.979 188.975C56.5699 45.795 98.0762 -10.5223 243.49 74.0637" stroke="#5C2231" stroke-width="20"/>
<path d="M549.534 187.571C606.932 49.3048 569.559 -12.6163 422.244 68.8436" stroke="#5C2231" stroke-width="20"/>
<path d="M480.349 93.7289C516.435 66.0453 539 59.0012 574.365 59.1819" stroke="#5C2231" stroke-width="20"/>
<path d="M183.661 92.6336C148.96 63.2332 126.763 55.1034 91.4303 53.5695" stroke="#5C2231" stroke-width="20"/>
<path d="M450.88 272.859C474.057 267.645 488.444 268.821 513.204 277.543" stroke="#5C2231" stroke-width="20" stroke-linecap="round"/>
<path d="M218.579 273.405C195.401 268.191 181.014 269.367 156.254 278.089" stroke="#5C2231" stroke-width="20" stroke-linecap="round"/>
<path d="M228.577 302.502C204.945 304.93 191.679 310.62 170.978 326.764" stroke="#5C2231" stroke-width="20" stroke-linecap="round"/>
<path d="M442.009 302.502C465.642 304.93 478.908 310.62 499.608 326.764" stroke="#5C2231" stroke-width="20" stroke-linecap="round"/>
<circle cx="248.699" cy="227.843" r="27.3036" fill="#5C2231" fill-opacity="0.909804"/>
<circle cx="420.166" cy="227.843" r="27.3036" fill="#5C2231" fill-opacity="0.909804"/>
<path d="M310 279.395C330.774 269.673 341.873 272.154 360 279.395" stroke="#5C2231" stroke-width="20" stroke-linecap="round"/>
<path d="M310 279.395C330.774 269.673 341.873 272.154 360 279.395" stroke="#5C2231" stroke-width="20" stroke-linecap="round"/>
<path d="M191.996 452.58C225.714 435.675 277.444 426.575 330.59 426.5C383.724 426.426 435.913 435.378 470.54 452.598C480.337 457.47 490.226 467.656 498.835 482.089C507.339 496.348 513.994 513.765 517.839 531.585C521.692 549.447 522.588 567.084 520.125 581.83C517.642 596.687 512.02 607.261 504.116 613.222C489.481 624.259 459.114 634.491 429.299 638.921C414.634 641.1 401.029 641.727 390.5 640.62C385.233 640.066 381.167 639.121 378.276 637.981C375.317 636.813 374.416 635.775 374.27 635.57C370.715 630.56 369.135 624.1 369.134 616.056C369.132 607.925 370.73 599.24 372.614 590.464C372.87 589.269 373.142 588.034 373.42 586.773C374.973 579.726 376.701 571.888 376.833 565.783C376.911 562.174 376.57 556.646 373.249 551.796C369.251 545.957 363.055 543.935 357.451 543.935H357.176H356.904H356.633H356.365H356.098H355.833H355.571H355.31H355.05H354.793H354.538H354.284H354.033H353.783H353.535H353.289H353.044H352.802H352.561H352.322H352.085H351.85H351.616H351.384H351.154H350.926H350.699H350.475H350.252H350.03H349.811H349.593H349.377H349.162H348.95H348.739H348.529H348.322H348.116H347.911H347.709H347.508H347.308H347.111H346.915H346.72H346.527H346.336H346.147H345.959H345.772H345.587H345.404H345.222H345.042H344.864H344.687H344.511H344.337H344.165H343.994H343.825H343.657H343.49H343.326H343.162H343H342.84H342.681H342.523H342.367H342.213H342.06H341.908H341.758H341.609H341.462H341.316H341.171H341.028H340.886H340.746H340.607H340.469H340.333H340.198H340.064H339.932H339.801H339.671H339.543H339.416H339.29H339.166H339.043H338.921H338.801H338.681H338.563H338.447H338.331H338.217H338.104H337.992H337.882H337.773H337.665H337.558H337.452H337.348H337.244H337.142H337.041H336.942H336.843H336.746H336.649H336.554H336.46H336.367H336.275H336.185H336.095H336.007H335.919H335.833H335.748H335.664H335.581H335.499H335.418H335.338H335.259H335.181H335.104H335.029H334.954H334.88H334.807H334.735H334.665H334.595H334.526H334.458H334.391H334.325H334.26H334.196H334.133H334.07H334.009H333.949H333.889H333.83H333.773H333.716H333.66H333.605H333.55H333.497H333.444H333.393H333.342H333.292H333.243H333.194H333.147H333.1H333.054H333.009H332.964H332.92H332.878H332.835H332.794H332.753H332.714H332.674H332.636H332.598H332.561H332.525H332.489H332.454H332.42H332.387H332.354H332.322H332.29H332.259H332.229H332.199H332.17H332.142H332.114H332.087H332.061H332.035H332.009H331.985H331.961H331.937H331.914H331.892H331.87H331.848H331.827H331.807H331.787H331.768H331.749H331.731H331.713H331.696H331.679H331.663H331.647H331.632H331.617H331.603H331.589H331.575H331.562H331.549H331.537H331.525H331.514H331.502H331.492H331.481H331.472H331.462H331.453H331.444H331.435H331.427H331.419H331.412H331.405H331.398H331.391H331.385H331.379H331.373H331.368H331.363H331.358H331.353H331.349H331.345H331.341H331.338H331.334H331.331H331.328H331.325H331.323H331.32H331.318H331.316H331.314H331.313H331.311H331.31H331.309H331.308H331.307H331.307H331.307H331.307H331.306H331.306H331.306H331.305H331.305H331.305H331.305H331.304H331.304H331.304H331.303H331.302H331.301H331.3H331.298H331.296H331.295H331.293H331.291H331.288H331.286H331.283H331.28H331.277H331.274H331.27H331.266H331.262H331.258H331.253H331.248H331.243H331.238H331.232H331.226H331.22H331.214H331.207H331.2H331.192H331.185H331.176H331.168H331.159H331.15H331.141H331.131H331.12H331.11H331.099H331.087H331.076H331.063H331.051H331.038H331.024H331.01H330.996H330.981H330.966H330.95H330.934H330.917H330.9H330.882H330.864H330.845H330.826H330.806H330.786H330.766H330.744H330.722H330.7H330.677H330.654H330.63H330.605H330.58H330.554H330.528H330.501H330.473H330.445H330.416H330.386H330.356H330.325H330.294H330.262H330.229H330.196H330.162H330.127H330.091H330.055H330.018H329.981H329.942H329.903H329.863H329.823H329.782H329.74H329.697H329.653H329.609H329.564H329.518H329.471H329.424H329.376H329.326H329.276H329.226H329.174H329.122H329.068H329.014H328.959H328.903H328.847H328.789H328.731H328.671H328.611H328.55H328.488H328.425H328.361H328.296H328.23H328.163H328.095H328.027H327.957H327.886H327.815H327.742H327.668H327.594H327.518H327.441H327.364H327.285H327.205H327.124H327.043H326.96H326.876H326.791H326.705H326.617H326.529H326.44H326.349H326.258H326.165H326.071H325.976H325.88H325.783H325.684H325.585H325.484H325.382H325.279H325.175H325.069H324.963H324.855H324.746H324.635H324.524H324.411H324.297H324.182H324.065H323.948H323.829H323.708H323.587H323.464H323.34H323.214H323.087H322.959H322.83H322.699H322.567H322.434H322.299H322.163H322.025H321.887H321.746H321.605H321.462H321.317H321.172H321.024H320.876H320.726H320.574H320.422H320.267H320.111H319.954H319.795H319.635H319.474H319.311H319.146H318.98H318.812H318.643H318.472H318.3C312.082 543.935 306.111 546.135 301.769 551.133C297.863 555.63 296.43 561.093 295.871 565.513C294.776 574.187 296.407 584.77 298.126 593.841C298.933 598.099 299.758 602.034 300.541 605.766C301.63 610.955 302.636 615.752 303.394 620.473C304.01 624.31 304.303 627.252 304.295 629.369C304.292 630.071 304.255 630.547 304.222 630.84C301.183 635.101 294.58 639.036 282.7 641.089C270.554 643.188 255.206 642.876 238.821 640.612C205.612 636.024 172.32 624.066 157.728 613.182C149.832 607.293 144.238 596.803 141.808 581.991C139.397 567.288 140.37 549.667 144.311 531.794C148.242 513.967 154.989 496.52 163.565 482.219C172.247 467.743 182.189 457.498 191.996 452.58Z" fill="#E3F6FF" stroke="#004C6F" stroke-width="25"/>
<path d="M366 440C366 460.687 362.313 480.526 355.749 495.154C349.185 509.782 340.283 518 331 518C321.717 518 312.815 509.782 306.251 495.154C299.687 480.527 296 460.687 296 440L331 440H366Z" fill="#A2C9E7"/>
<circle cx="435" cy="503" r="15" fill="#004C6F"/>
<circle cx="435" cy="550" r="15" fill="#004C6F"/>
<circle cx="405" cy="526" r="15" fill="#004C6F"/>
<circle cx="466" cy="526" r="15" fill="#004C6F"/>
<path d="M264 535H194" stroke="#004C6F" stroke-width="25" stroke-linecap="round"/>
<path d="M229 500V570" stroke="#004C6F" stroke-width="25" stroke-linecap="round"/>
<circle cx="455" cy="442" r="27.5" fill="#E5A22E" stroke="#5C2231" stroke-width="15"/>
<circle cx="214" cy="442" r="27.5" fill="#E5A22E" stroke="#5C2231" stroke-width="15"/>
</g>
<defs>
<clipPath id="clip0_47_528">
<rect width="662" height="664" fill="white"/>
</clipPath>
</defs>
</svg>
