<svg width="662" height="664" viewBox="0 0 662 664" fill="none" xmlns="http://www.w3.org/2000/svg">
<g clip-path="url(#clip0_52_86)">
<path d="M411.877 569.665C414.414 586.131 412.783 600.685 408.264 611.031C403.868 621.094 397.164 626.57 388.724 627.87C380.284 629.171 372.242 625.967 365.021 617.694C357.597 609.189 351.66 595.801 349.123 579.335C348.464 575.057 347.808 571.272 347.193 567.727C346.365 562.953 345.612 558.613 345.029 554.089C344.064 546.592 343.992 541.159 344.924 537.04C345.739 533.435 347.328 530.737 350.61 528.347C354.298 525.661 360.805 522.898 372.276 521.13C383.748 519.362 390.785 520.039 395.111 521.49C398.96 522.781 401.287 524.876 403.15 528.068C405.278 531.716 406.845 536.919 408.181 544.358C408.987 548.847 409.576 553.213 410.223 558.014C410.704 561.581 411.218 565.388 411.877 569.665Z" fill="#B2AFA5" stroke="#4D4A42" stroke-width="25"/>
<path d="M260.731 569.666C258.194 586.132 259.825 600.686 264.344 611.032C268.74 621.095 275.444 626.571 283.885 627.871C292.325 629.172 300.366 625.968 307.588 617.695C315.012 609.19 320.948 595.802 323.485 579.336C324.144 575.058 324.801 571.273 325.416 567.728C326.244 562.954 326.996 558.614 327.579 554.09C328.544 546.593 328.616 541.16 327.685 537.041C326.869 533.436 325.281 530.738 321.999 528.348C318.311 525.662 311.803 522.899 300.332 521.131C288.861 519.363 281.823 520.04 277.498 521.491C273.649 522.782 271.321 524.877 269.459 528.069C267.331 531.717 265.763 536.92 264.427 544.359C263.621 548.848 263.032 553.214 262.385 558.015C261.904 561.582 261.391 565.389 260.731 569.666Z" fill="#B2AFA5" stroke="#4D4A42" stroke-width="25"/>
<path d="M449.203 420.716C461.935 468.535 450.434 505.846 428.458 531.278C406.143 557.102 372.308 571.5 339.312 571.5C306.629 571.5 270.761 555.605 246.018 528.452C221.589 501.643 208.322 464.265 219.53 420.608C230.003 379.816 244.333 339.832 264.348 310.302C284.244 280.947 308.554 263.5 339.312 263.5C368.14 263.5 392.616 288.318 412.401 324.279C431.615 359.201 443.589 399.628 449.203 420.716Z" fill="#B2AFA5" stroke="#4D4A42" stroke-width="25"/>
<path d="M571.261 230.305C568.531 339.519 445.944 395.219 318.975 395.219C173.174 391.942 100 320.676 100 222.66C100 124.644 203.754 34.8105 339.726 38.0869C466.694 38.0869 557.609 117.814 571.261 230.305Z" fill="#B2AFA5"/>
<path d="M382.572 129.847C377.209 134.513 374.527 136.846 373.236 135.889C371.945 134.933 373.395 131.688 376.294 125.198L409.227 51.4766C409.943 49.8726 410.302 49.0705 411.017 48.7617C411.733 48.4529 412.573 48.746 414.251 49.3322C449.426 61.6164 428.557 48.0924 445.878 69.4881C447.082 70.9745 447.683 71.7177 447.613 72.5224C447.543 73.3271 446.843 73.9354 445.445 75.1521L382.572 129.847Z" fill="#4D4A42"/>
<path d="M331.23 171.375C332.802 175.804 333.587 178.019 335 178.019C336.413 178.019 337.198 175.804 338.77 171.375L380.738 53.0875C381.6 50.6574 382.031 49.4424 381.433 48.5962C380.836 47.75 379.546 47.75 376.968 47.75H293.032C290.454 47.75 289.164 47.75 288.567 48.5962C287.969 49.4424 288.4 50.6574 289.262 53.0875L331.23 171.375Z" fill="#4D4A42"/>
<path d="M286.334 129.847C291.697 134.513 294.379 136.846 295.67 135.889C296.961 134.933 295.511 131.688 292.612 125.198L259.679 51.4766C258.963 49.8726 258.605 49.0705 257.889 48.7617C257.173 48.4529 256.334 48.746 254.655 49.3322C219.48 61.6164 240.349 48.0924 223.028 69.4881C221.825 70.9745 221.223 71.7177 221.293 72.5224C221.364 73.3271 222.063 73.9354 223.461 75.1521L286.334 129.847Z" fill="#4D4A42"/>
<path d="M94.9147 38L120.034 41.8225L145.153 51.6518L167.542 64.7576L187.747 79.5015L147.338 114.45L114.027 165.235L104.744 136.293L94.9147 101.344L90 66.9419L94.9147 38Z" fill="#F9E4E9"/>
<path d="M577.832 45L552.713 48.8225L527.594 58.6518L505.205 71.7576L485 86.5015L525.409 121.45L558.72 172.235L568.003 143.293L577.832 108.344L582.747 73.9419L577.832 45Z" fill="#F9E4E9"/>
<path d="M96 36.9615C101.819 28.204 96 36.9615 101.819 28.204C108.276 21.093 117.287 19.2096 128.058 16.6534C138.829 14.0973 153.068 19.5144 165.621 22.1142C178.173 24.7139 217.221 56.2582 243.163 58.2584L189.926 77.4626C183.667 73.5335 166.99 63.8996 158.253 58.2584C150.062 54.4359 142.417 50.6134 142.417 50.6134C142.417 50.6134 141.87 50.6134 128.058 47.883C107.468 42.4223 128.058 47.883 107.468 42.4223L96 36.9615Z" fill="#B2AFA5"/>
<path d="M573.929 36.3012C562.461 27.5437 568.28 38.1503 562.461 29.3928C551.611 26.3271 552.642 20.4814 541.871 17.9252C531.1 15.3691 517.389 18.6019 504.837 21.2017C492.285 23.8014 447.413 47.3678 436.031 54.5121L480.003 76.8024C486.262 72.8732 502.939 63.2394 511.676 57.5982C519.868 53.7757 527.513 49.9532 527.513 49.9532C527.513 49.9532 528.059 49.9532 541.871 47.2228C562.461 41.7621 541.871 47.2228 562.461 41.7621L573.929 36.3012Z" fill="#B2AFA5"/>
<path d="M111.795 174.961C57.3856 31.7813 98.8918 -24.536 244.306 60.05" stroke="#4D4A42" stroke-width="20"/>
<path d="M552.534 174.571C609.932 36.3048 572.559 -25.6163 425.244 55.8436" stroke="#4D4A42" stroke-width="20"/>
<path d="M485.014 81.0653C521.099 53.3817 543.664 46.3376 579.03 46.5184" stroke="#4D4A42" stroke-width="20"/>
<path d="M184.231 80.3636C149.529 50.9632 127.333 42.8334 92 41.2995" stroke="#4D4A42" stroke-width="20"/>
<path d="M450.88 259.859C474.057 254.645 488.444 255.821 513.204 264.543" stroke="#4D4A42" stroke-width="20" stroke-linecap="round"/>
<path d="M218.579 260.405C195.401 255.191 181.014 256.367 156.254 265.089" stroke="#4D4A42" stroke-width="20" stroke-linecap="round"/>
<path d="M228.577 289.503C204.945 291.93 191.679 297.621 170.979 313.765" stroke="#4D4A42" stroke-width="20" stroke-linecap="round"/>
<path d="M442.009 289.503C465.642 291.93 478.908 297.621 499.608 313.765" stroke="#4D4A42" stroke-width="20" stroke-linecap="round"/>
<circle cx="248.699" cy="214.843" r="27.3036" fill="#4D4A42"/>
<circle cx="420.166" cy="214.843" r="27.3036" fill="#4D4A42"/>
<path d="M105.787 220.236L105.798 220.012L105.799 219.788C105.941 172.53 132.112 127.944 174.306 94.8362C216.456 61.7622 273.862 40.8164 334.433 40.8164C403.169 40.8164 456.643 60.7385 494.652 92.8648C532.672 125.001 555.9 169.92 563.165 221.161C569.092 262.96 549.856 302.446 509.712 333.055C469.438 363.763 408.594 384.979 333.911 388.883C263.992 392.538 205.509 375.159 165.399 344.647C125.459 314.266 103.371 270.676 105.787 220.236Z" stroke="#4D4A42" stroke-width="20"/>
<path d="M310 266.395C330.774 256.673 341.873 259.154 360 266.395" stroke="#4D4A42" stroke-width="20" stroke-linecap="round"/>
<path d="M204.456 565.56C202.481 547.71 186.41 534.842 168.56 536.817C150.71 538.792 137.842 554.863 139.817 572.713C141.792 590.562 157.863 603.431 175.713 601.456C193.562 599.481 206.431 583.409 204.456 565.56Z" fill="#E3F6FF" stroke="#004C6F" stroke-width="25"/>
<path d="M439.736 347.663C432.949 316.165 414.992 289.647 389.907 274.219C364.605 258.659 332.846 254.902 300.112 267.736C285.749 273.368 268.94 282.537 257.427 294.404C251.629 300.38 246.51 307.722 244.334 316.32C242.052 325.341 243.277 334.768 248.62 343.697C253.974 352.647 261.728 358.286 271.035 360.384C279.848 362.371 288.929 360.939 297.177 358.21C304.685 355.725 308.946 353.729 313.067 350.42C314.638 349.159 315.607 348.279 316.539 347.432C318.063 346.048 319.486 344.755 323.273 342.04C330.269 337.023 338.388 337.384 346.795 342.83C355.538 348.494 362.848 358.88 365.18 369.925C369.841 392 356.143 415.725 334.695 422.726C327.081 425.212 321.722 422.686 311.512 415.744C310.861 415.302 310.185 414.835 309.484 414.351C300.294 408.012 286.753 398.671 268.523 400.655C242.772 403.458 219.83 420.018 207.091 440.278C194.301 460.617 190.224 487.862 208.535 509.53C213.133 514.97 218.212 520.451 224.589 524.51C231.307 528.787 238.853 531.122 247.911 531.391C253.808 531.566 259.33 530.127 264.075 526.877C268.657 523.738 271.662 519.494 273.705 515.421C277.484 507.887 279.149 498.334 280.454 490.843L280.514 490.497L280.536 490.373C282.007 481.939 283.196 475.115 285.369 469.745C287.411 464.697 289.464 463.076 291.55 462.414C294.949 461.335 296.817 461.857 298.754 463.002C301.527 464.642 304.439 467.674 308.737 472.775C309.185 473.307 309.652 473.865 310.135 474.444C313.742 478.763 318.317 484.24 323.629 488.607C330.035 493.874 338.297 498.255 348.953 498.458C383.912 499.125 410.088 474.801 425.266 445.708C440.525 416.46 446.556 379.312 439.736 347.663Z" fill="#E3F6FF" stroke="#004C6F" stroke-width="25"/>
<path d="M219.456 442.56C217.481 424.71 201.41 411.842 183.56 413.817C165.71 415.792 152.842 431.863 154.817 449.713C156.792 467.562 172.863 480.431 190.713 478.456C208.562 476.481 221.431 460.409 219.456 442.56Z" fill="#B2AFA5" stroke="#4D4A42" stroke-width="25"/>
<path d="M483.456 442.56C481.481 424.71 465.41 411.842 447.56 413.817C429.71 415.792 416.842 431.863 418.817 449.713C420.792 467.562 436.863 480.431 454.713 478.456C472.562 476.481 485.431 460.409 483.456 442.56Z" fill="#B2AFA5" stroke="#4D4A42" stroke-width="25"/>
</g>
<defs>
<clipPath id="clip0_52_86">
<rect width="662" height="664" fill="white"/>
</clipPath>
</defs>
</svg>
