<svg width="662" height="664" viewBox="0 0 662 664" fill="none" xmlns="http://www.w3.org/2000/svg">
<g clip-path="url(#clip0_47_418)">
<path d="M218 339.5H444.8C460.54 339.5 473.3 352.26 473.3 368V613C473.3 628.74 460.54 641.5 444.8 641.5H218C202.26 641.5 189.5 628.74 189.5 613V368C189.5 352.26 202.26 339.5 218 339.5Z" fill="#E3F6FF" stroke="#004C6F" stroke-width="25"/>
<path d="M337.336 40.3231L337.336 40.3233H337.348C464.072 40.3233 554.748 119.865 568.382 232.065C567.009 286.438 535.817 327.515 489.075 355.022C442.314 382.542 380.021 396.454 316.603 396.455C243.778 394.818 189.159 376.202 152.754 345.819C116.36 315.444 98.1216 273.27 98.1216 224.396C98.1216 126.751 201.545 37.0511 337.336 40.3231Z" fill="#DCD0C7" stroke="#5C2231"/>
<path d="M162.876 69.1839L182.552 83.5423L142.618 118.08L142.566 118.125L142.527 118.184L109.791 168.093L100.831 140.157L91.0129 105.249L86.1139 70.9561L90.9332 42.5758L115.512 46.316L140.543 56.1107L162.876 69.1839Z" fill="#F9E4E9" stroke="#5C2231"/>
<path d="M500.898 71.3682L481.221 85.7266L521.155 120.264L521.208 120.31L521.246 120.368L553.982 170.277L562.943 142.341L572.761 107.433L577.66 73.1404L572.84 44.7601L548.262 48.5003L523.231 58.295L500.898 71.3682Z" fill="#F9E4E9" stroke="#5C2231"/>
<path d="M136.939 51.837L137.162 51.3899L137.163 51.39L137.164 51.3905L137.168 51.3925L137.184 51.4008L137.25 51.4335L137.506 51.5611C137.731 51.6729 138.061 51.837 138.483 52.0459C139.327 52.4637 140.538 53.0605 142.005 53.7768C144.938 55.2095 148.894 57.1194 152.986 59.029L153.017 59.0434L153.046 59.062C157.406 61.8769 163.752 65.6911 169.797 69.2967C170.954 69.9867 172.1 70.6692 173.219 71.3354C177.814 74.0721 181.953 76.5364 184.508 78.1334L235.47 59.7495C229.471 58.946 222.895 56.744 216.19 53.8144C208.659 50.5239 200.934 46.3009 193.642 42.0672C190.026 39.9681 186.514 37.8648 183.184 35.8701L183.097 35.8181C179.739 33.8072 176.568 31.9087 173.657 30.2342C170.745 28.5594 168.101 27.1132 165.798 26.0059C163.488 24.8955 161.549 24.1397 160.041 23.8274C156.89 23.1747 153.636 22.3458 150.369 21.5128L150.3 21.495C147.052 20.6669 143.793 19.8357 140.591 19.1633C134.129 17.8064 127.968 17.1123 122.696 18.3635C122.262 18.4666 121.83 18.5686 121.402 18.6697C111.186 21.0852 102.812 23.0651 96.7367 29.736L96.7237 29.7554L96.69 29.8062L96.6566 29.8565L96.6234 29.9064L96.5579 30.005L96.5255 30.0538L96.4934 30.1021L96.3674 30.2917L96.2455 30.4751L96.2157 30.52L96.1861 30.5646L96.1567 30.6087L96.1277 30.6525L96.0988 30.6959L96.0702 30.739L96.0418 30.7817L96.0137 30.824L95.9582 30.9076L95.9308 30.9488L95.9036 30.9897L95.8767 31.0302L95.85 31.0704L95.8235 31.1102L95.7973 31.1497L95.7456 31.2275L95.7201 31.266L95.6948 31.304L95.5958 31.4529L95.5717 31.4892L95.5477 31.5252L95.524 31.5609L95.5005 31.5963L95.4773 31.6313L95.4542 31.666L95.4314 31.7004L95.4088 31.7344L95.3642 31.8015L95.3422 31.8346L95.3205 31.8673L95.2989 31.8998L95.2776 31.9319L95.2565 31.9637L95.2355 31.9951L95.2148 32.0263L95.1943 32.0571L95.1539 32.1179L95.1341 32.1478L95.1144 32.1775L95.0949 32.2068L95.0756 32.2358L95.0565 32.2645L95.0377 32.2929L95.0005 32.3489L94.9822 32.3764L94.9641 32.4036L94.9285 32.4572L94.911 32.4836L94.8937 32.5097L94.8765 32.5355L94.8596 32.561L94.8428 32.5862L94.8262 32.6111L94.7936 32.6602L94.6705 32.8455L94.6559 32.8675L94.6415 32.8892L94.6272 32.9107L94.6131 32.9319L94.5992 32.9528L94.5855 32.9735L94.5585 33.0141L94.5065 33.0922L94.494 33.1112L94.4815 33.1299L94.4693 33.1483L94.4572 33.1665L94.4104 33.237L94.366 33.3038L94.2119 33.5357C94.188 33.5717 94.2188 33.5253 94.1951 33.561L94.1788 33.5855L94.1478 33.6321L94.1189 33.6757L94.1119 33.6861L94.1051 33.6964L94.0918 33.7164L94.0016 33.8522L93.937 33.9495L93.9129 33.9857L93.8936 34.0147L93.8915 34.0178L93.8895 34.0209L93.8875 34.0238L93.8856 34.0267L93.8786 34.0373L93.8674 34.0542L93.8593 34.0664L93.8539 34.0745L93.8506 34.0795C93.8481 34.0832 93.8509 34.0789 93.8489 34.082L93.8485 34.0826L93.8484 34.0828L93.8483 34.083L136.939 51.837ZM136.939 51.837L137.162 51.3898L137.057 51.337L136.962 51.337C136.959 51.3367 136.956 51.3362 136.951 51.3357C136.917 51.3313 136.847 51.3216 136.717 51.3006C136.455 51.2588 135.959 51.1743 135.029 51.0039C133.171 50.6635 129.588 49.9822 122.693 48.6192L113.7 46.2343L112.574 45.9357L112.434 45.8983L112.416 45.8937L112.414 45.8931L112.413 45.893L112.413 45.8929L112.411 45.8923L112.393 45.8877L112.253 45.8503L111.127 45.5517L102.163 43.1745L91.2578 37.9816M136.939 51.837L91.2578 37.9816M91.2578 37.9816L91.3289 37.8745L91.3598 37.8281L91.3904 37.782L91.4207 37.7364L91.4508 37.6911L91.5102 37.6016L91.5396 37.5574L91.5687 37.5137L91.6262 37.4272L91.6545 37.3845L91.6826 37.3422L91.899 37.0165L91.9508 36.9386L92.0016 36.8621L92.0515 36.787L92.0761 36.75L92.1005 36.7133L92.1247 36.6769L92.1486 36.6409L92.1958 36.5699L92.2876 36.4317L92.3322 36.3646L92.3759 36.2988L92.4188 36.2343L92.4399 36.2025L92.4608 36.171L92.4815 36.1399L92.502 36.109L92.5424 36.0483L92.5623 36.0183L92.582 35.9887L92.6207 35.9304L92.6959 35.8173L92.7141 35.7898L92.7322 35.7625L92.7501 35.7356L92.7678 35.7089L92.7854 35.6826L92.8027 35.6565L92.8198 35.6307L92.8368 35.6052L92.8701 35.555L92.8865 35.5304L92.9027 35.506L92.9657 35.4111L92.981 35.3881L92.9962 35.3653L93.0259 35.3206L93.0832 35.2343L93.0971 35.2134L93.1109 35.1927L93.1378 35.1521L93.1898 35.0739L93.2024 35.055L93.2148 35.0363L93.2392 34.9996L93.3303 34.8624L93.4845 34.6304L93.5485 34.5341L93.5775 34.4905L93.5844 34.48L93.5912 34.4698L93.5979 34.4597L93.6045 34.4498L93.6297 34.4119L93.6531 34.3767L93.6641 34.3601L93.6695 34.352L93.6748 34.3441L93.6947 34.314L93.7594 34.2167L93.7721 34.1977L93.775 34.1932L93.7779 34.1888L93.7807 34.1846L93.7834 34.1805L93.7936 34.1651L93.8027 34.1515L93.829 34.1119L93.8425 34.0916L93.8475 34.0842L93.8481 34.0832L91.2578 37.9816Z" fill="#DCD0C7" stroke="#5C2231"/>
<path d="M528.483 54.2735L528.259 53.8263L528.259 53.8264L528.258 53.8269L528.254 53.829L528.237 53.8372L528.172 53.8699L527.916 53.9975C527.691 54.1094 527.361 54.2735 526.939 54.4823C526.095 54.9001 524.884 55.497 523.417 56.2133C520.484 57.6459 516.528 59.5558 512.436 61.4654L512.405 61.4799L512.376 61.4984C508.016 64.3134 501.67 68.1276 495.625 71.7332C494.468 72.4232 493.322 73.1056 492.203 73.7719C487.627 76.4967 483.505 78.9514 480.947 80.549L438.022 58.7887C444.111 55.0572 457.577 47.731 471.189 40.9201C478.29 37.3675 485.423 33.9589 491.562 31.277C497.714 28.5891 502.828 26.6496 505.909 26.0116C506.791 25.8287 507.679 25.6429 508.571 25.4563C514.029 24.3141 519.624 23.143 525.056 22.4462C531.375 21.6356 537.426 21.4743 542.726 22.732C547.995 23.9824 550.356 26.0208 552.775 28.1626L552.894 28.2672C555.292 30.3908 557.793 32.6061 563.117 34.1433C563.796 35.1613 564.315 35.9144 564.724 36.4634C565.146 37.0311 565.471 37.4122 565.747 37.6408C566.037 37.8807 566.36 38.0214 566.727 37.9204C566.876 37.8791 566.998 37.805 567.084 37.7486C567.128 37.7196 567.172 37.6882 567.21 37.6621C567.249 37.6345 567.284 37.6097 567.321 37.5856C567.458 37.4961 567.606 37.42 567.827 37.3924C568.057 37.3639 568.404 37.3835 568.934 37.5549C569.924 37.8745 571.471 38.6938 573.94 40.5248L563.259 45.611L554.295 47.9881L553.169 48.2868L553.029 48.3241L553.011 48.3288L553.009 48.3293L528.483 54.2735ZM528.483 54.2735L528.259 53.8263L528.365 53.7735L528.46 53.7735L528.483 54.2735Z" fill="#DCD0C7" stroke="#5C2231"/>
<path d="M103.787 223.236L103.798 223.012L103.799 222.788C103.941 175.53 130.112 130.944 172.306 97.8365C214.456 64.7625 271.862 43.8167 332.433 43.8167C401.169 43.8167 454.643 63.7388 492.652 95.865C530.672 128.001 553.9 172.92 561.165 224.162C567.092 265.96 547.856 305.446 507.712 336.055C467.438 366.763 406.594 387.98 331.911 391.884C261.992 395.538 203.509 378.159 163.399 347.648C123.459 317.266 101.371 273.676 103.787 223.236Z" stroke="#5C2231" stroke-width="20"/>
<path d="M108.979 178.974C54.5699 35.7947 96.0762 -20.5226 241.49 64.0634" stroke="#5C2231" stroke-width="20"/>
<path d="M549.508 180.677C606.907 42.4108 569.534 -19.5104 422.219 61.9495" stroke="#5C2231" stroke-width="20"/>
<path d="M478.349 83.7291C514.435 56.0456 537 49.0014 572.365 49.1822" stroke="#5C2231" stroke-width="20"/>
<path d="M181.661 82.6339C146.96 53.2334 124.763 45.1037 89.4304 43.5697" stroke="#5C2231" stroke-width="20"/>
<path d="M448.88 262.859C472.057 257.645 486.444 258.821 511.204 267.544" stroke="#5C2231" stroke-width="20" stroke-linecap="round"/>
<path d="M216.579 263.405C193.401 258.191 179.014 259.367 154.254 268.089" stroke="#5C2231" stroke-width="20" stroke-linecap="round"/>
<path d="M226.577 292.502C202.945 294.93 189.679 300.621 168.979 316.764" stroke="#5C2231" stroke-width="20" stroke-linecap="round"/>
<path d="M440.009 292.502C463.642 294.93 476.908 300.621 497.608 316.764" stroke="#5C2231" stroke-width="20" stroke-linecap="round"/>
<circle cx="246.699" cy="217.843" r="26.8036" fill="#5C2231" stroke="#5C2231"/>
<circle cx="418.166" cy="217.843" r="26.8036" fill="#5C2231" stroke="#5C2231"/>
<path d="M308 269.395C328.774 259.673 339.873 262.154 358 269.395" stroke="#5C2231" stroke-width="20" stroke-linecap="round"/>
<rect x="177" y="31" width="325" height="46" rx="23" fill="#E3F6FF" stroke="#004C6F" stroke-width="20"/>
<rect x="301" y="3" width="60" height="35" rx="17.5" fill="#004C6F"/>
<rect x="309" y="426" width="43" height="163" rx="18" fill="#A2C9E7" stroke="#004C6F" stroke-width="20"/>
<path d="M470 429V419H460H453C452.834 419 452.668 419 452.501 419C449.168 418.999 445.746 418.998 442.889 419.382C439.602 419.824 435.611 420.933 432.272 424.272C428.933 427.611 427.824 431.602 427.382 434.889C426.998 437.746 426.999 441.168 427 444.501C427 444.668 427 444.834 427 445V556C427 556.166 427 556.332 427 556.499C426.999 559.832 426.998 563.254 427.382 566.111C427.824 569.398 428.933 573.389 432.272 576.728C435.611 580.067 439.602 581.176 442.889 581.618C445.746 582.002 449.168 582.001 452.501 582C452.668 582 452.834 582 453 582H460H470V572V429Z" fill="#A2C9E7" stroke="#004C6F" stroke-width="20"/>
<path d="M207 426H197V436V579V589H207H214C214.166 589 214.332 589 214.499 589C217.832 589.001 221.254 589.002 224.111 588.618C227.398 588.176 231.389 587.067 234.728 583.728C238.067 580.389 239.176 576.398 239.618 573.111C240.002 570.254 240.001 566.832 240 563.499C240 563.332 240 563.166 240 563V452C240 451.834 240 451.668 240 451.501C240.001 448.168 240.002 444.746 239.618 441.889C239.176 438.602 238.067 434.611 234.728 431.272C231.389 427.933 227.398 426.824 224.111 426.382C221.254 425.998 217.832 425.999 214.499 426C214.332 426 214.166 426 214 426H207Z" fill="#A2C9E7" stroke="#004C6F" stroke-width="20"/>
</g>
<defs>
<clipPath id="clip0_47_418">
<rect width="662" height="664" fill="white"/>
</clipPath>
</defs>
</svg>
