<svg width="662" height="664" viewBox="0 0 662 664" fill="none" xmlns="http://www.w3.org/2000/svg">
<path d="M61.2173 311.175L61.2243 310.994L61.2248 310.812C61.573 167.978 189.441 46 331.932 46C412.522 46 475.591 74.8368 520.767 122.047C566.096 169.417 593.987 235.915 602.704 311.927C617.229 438.589 507.14 549.936 331.287 561.301C249.302 566.6 180.416 541.471 132.825 496.713C85.2492 451.968 58.2805 386.984 61.2173 311.175Z" fill="#333333" stroke="black" stroke-width="20"/>
<path d="M568.261 327.305C565.531 436.519 442.944 492.219 315.975 492.219C170.174 488.942 97 417.676 97 319.66C97 221.644 200.754 131.81 336.726 135.087C463.694 135.087 554.609 214.814 568.261 327.305Z" fill="#E0E5E8"/>
<path d="M197.904 327.598C199.68 328.795 198.586 331.569 196.471 331.231L105.962 316.781C104.928 316.616 104.202 315.628 104.284 314.585C107.504 273.965 98.8933 300.779 116.856 275.407C117.488 274.513 118.743 274.245 119.651 274.858L197.904 327.598Z" fill="#B9C4CC"/>
<path d="M184.386 336.524C186.64 336.877 186.64 340.123 184.386 340.476L102.56 353.294C101.346 353.484 100.25 352.546 100.25 351.318V325.682C100.25 324.454 101.346 323.516 102.56 323.706L184.386 336.524Z" fill="#B9C4CC"/>
<path d="M235.921 411.286C237.208 409.74 235.665 407.475 233.755 408.108L165.063 430.864C163.923 431.242 163.392 432.577 163.9 433.665C180.133 468.465 164.142 446.137 187.386 466.3C188.238 467.039 189.562 466.967 190.284 466.101L235.921 411.286Z" fill="#B9C4CC"/>
<path d="M422.65 406.286C421.363 404.74 422.907 402.475 424.816 403.108L493.509 425.864C494.649 426.242 495.179 427.577 494.672 428.665C478.439 463.465 494.429 441.137 471.185 461.3C470.333 462.039 469.009 461.967 468.288 461.101L422.65 406.286Z" fill="#B9C4CC"/>
<path d="M475.614 336.524C473.36 336.877 473.36 340.123 475.614 340.476L557.44 353.294C558.654 353.484 559.75 352.546 559.75 351.318V325.682C559.75 324.454 558.654 323.516 557.44 323.706L475.614 336.524Z" fill="#B9C4CC"/>
<path d="M459.166 319.598C457.39 320.795 458.484 323.569 460.599 323.231L551.108 308.781C552.142 308.616 552.869 307.628 552.786 306.585C549.566 265.965 558.177 292.779 540.214 267.407C539.582 266.513 538.327 266.245 537.419 266.858L459.166 319.598Z" fill="#B9C4CC"/>
<path d="M372.739 232.791C371.123 234.197 368.727 232.422 369.601 230.466L406.984 146.782C407.411 145.826 408.553 145.38 409.539 145.73C447.942 159.353 424.27 144.096 444.129 168.013C444.828 168.855 444.762 170.136 443.936 170.855L372.739 232.791Z" fill="#B9C4CC"/>
<path d="M330.115 273.687C330.745 275.462 333.255 275.462 333.885 273.687L378.685 147.419C379.146 146.117 378.181 144.75 376.8 144.75H287.2C285.819 144.75 284.854 146.117 285.315 147.419L330.115 273.687Z" fill="#B9C4CC"/>
<path d="M290.167 232.791C291.783 234.197 294.179 232.422 293.306 230.466L255.922 146.782C255.495 145.826 254.353 145.38 253.367 145.73C214.964 159.353 238.636 144.096 218.778 168.013C218.078 168.855 218.144 170.136 218.971 170.855L290.167 232.791Z" fill="#B9C4CC"/>
<path d="M58.3382 64.9941L83.4576 68.8167L108.577 78.646L130.966 91.7517L151.171 106.496L110.761 141.444L77.4508 192.229L68.1676 163.287L58.3382 128.339L53.4236 93.936L58.3382 64.9941Z" fill="#F9E4E9"/>
<path d="M607.251 67.1919L582.132 71.0144L557.012 80.8437L534.623 93.9495L514.418 108.693L554.828 143.642L588.138 194.427L597.422 165.485L607.251 130.536L612.166 96.1338L607.251 67.1919Z" fill="#F9E4E9"/>
<path d="M58.3379 61.1715C64.1569 52.4139 58.3379 61.1715 64.1569 52.4139C70.6138 45.303 79.6252 43.4195 90.3961 40.8634C101.167 38.3072 115.406 43.7243 127.959 46.3241C140.511 48.9239 179.559 80.4681 205.501 82.4684L152.264 101.673C146.005 97.7434 129.328 88.1096 120.591 82.4684C112.399 78.6459 104.754 74.8234 104.754 74.8234C104.754 74.8234 104.208 74.8234 90.3961 72.093C69.8058 66.6323 90.3961 72.093 69.8058 66.6323L58.3379 61.1715Z" fill="#D0D8DD"/>
<path d="M608.9 63.6216C597.432 54.8641 603.251 65.4706 597.432 56.7131C586.581 53.6474 587.612 47.8017 576.841 45.2455C566.07 42.6894 552.359 45.9222 539.807 48.522C527.255 51.1217 482.384 74.6881 471.002 81.8324L514.973 104.123C521.233 100.194 537.91 90.5597 546.647 84.9185C554.838 81.096 562.483 77.2735 562.483 77.2735C562.483 77.2735 563.029 77.2735 576.841 74.5431C597.432 69.0824 576.841 74.5431 597.432 69.0824L608.9 63.6216Z" fill="#D0D8DD"/>
<path d="M76.7946 201.961C22.3856 58.7813 63.8918 2.464 209.306 87.05" stroke="#576A78" stroke-width="20"/>
<path d="M584.534 201.571C641.932 63.3048 604.559 1.38367 457.244 82.8436" stroke="#576A78" stroke-width="20"/>
<path d="M512.349 106.729C548.435 79.0453 571 72.0012 606.365 72.1819" stroke="#576A78" stroke-width="20"/>
<path d="M156.231 111.364C121.529 81.9632 99.3327 73.8334 64 72.2995" stroke="#576A78" stroke-width="20"/>
<path d="M447.88 356.859C471.057 351.645 485.444 352.821 510.204 361.543" stroke="#576A78" stroke-width="20" stroke-linecap="round"/>
<path d="M215.579 357.405C192.401 352.191 178.014 353.367 153.254 362.089" stroke="#576A78" stroke-width="20" stroke-linecap="round"/>
<path d="M225.577 386.502C201.945 388.93 188.679 394.62 167.979 410.764" stroke="#576A78" stroke-width="20" stroke-linecap="round"/>
<path d="M439.009 386.502C462.642 388.93 475.908 394.62 496.608 410.764" stroke="#576A78" stroke-width="20" stroke-linecap="round"/>
<circle cx="245.699" cy="311.843" r="27.3036" fill="#576A78"/>
<circle cx="417.166" cy="311.843" r="27.3036" fill="#576A78"/>
<path d="M102.787 317.236L102.798 317.012L102.799 316.788C102.941 269.53 129.112 224.944 171.306 191.836C213.456 158.762 270.862 137.816 331.433 137.816C400.169 137.816 453.643 157.739 491.652 189.865C529.672 222.001 552.9 266.92 560.165 318.161C566.092 359.96 546.856 399.446 506.712 430.055C466.438 460.763 405.594 481.979 330.911 485.883C260.992 489.538 202.509 472.159 162.399 441.647C122.459 411.266 100.371 367.676 102.787 317.236Z" stroke="#576A78" stroke-width="20"/>
<path d="M307 363.395C327.774 353.673 338.873 356.154 357 363.395" stroke="#576A78" stroke-width="20" stroke-linecap="round"/>
<path d="M62.5439 299.515C62.1302 277.233 62.7173 246.796 72.4871 213.75C85.7351 168.94 116.048 119.36 185.831 82.5565C232.162 58.1217 281.56 44.5 338 44.5C393.895 44.5 454.273 64.9765 493.737 91.6779C584.045 159.547 597.964 248.8 600.109 298.365L559.561 273.36L558.578 272.754L557.501 272.338L500.501 250.338L500.437 250.314L500.372 250.289L425.372 222.289L425.12 222.195L424.864 222.112L384.864 209.112L383.68 208.727L382.444 208.584L339.444 203.584L337.991 203.415L336.539 203.586L294.039 208.586L293.139 208.692L292.264 208.926L243.764 221.926L243.402 222.023L243.047 222.141L159.047 250.141L158.452 250.34L157.88 250.597L108.88 272.597L108.278 272.867L107.707 273.2L62.5439 299.515Z" fill="#333333" stroke="black" stroke-width="25"/>
<rect x="175" y="435" width="311" height="210" rx="42" fill="#E3F6FF" stroke="#004C6F" stroke-width="20"/>
<path d="M350.261 561.663V586.5H311.797V561.663V557.56L308.362 555.36C308.362 555.361 308.362 555.36 308.361 555.36C308.36 555.359 308.357 555.357 308.355 555.356C308.354 555.355 308.355 555.356 308.353 555.355C308.338 555.345 308.305 555.323 308.256 555.29C308.156 555.223 307.99 555.109 307.766 554.95C307.317 554.632 306.643 554.136 305.819 553.474C304.159 552.143 301.949 550.189 299.756 547.721C295.257 542.656 291.5 536.197 291.5 528.963C291.5 520.288 293.809 511.229 299.577 504.457C305.149 497.916 314.807 492.5 331.703 492.5C349.059 492.5 358.468 497.123 363.712 502.988C369.099 509.013 371.435 517.825 371.435 528.963C371.435 538.481 367.316 544.824 363.104 548.944C360.964 551.037 358.811 552.534 357.208 553.497C356.412 553.974 355.77 554.31 355.356 554.514C355.15 554.616 355.002 554.684 354.924 554.719C354.898 554.73 354.88 554.738 354.869 554.743L350.261 556.641V561.663Z" fill="#D9D9D9" stroke="#333333" stroke-width="15"/>
<circle cx="317.755" cy="529.303" r="7.03226" fill="#333333"/>
<circle cx="345.884" cy="529.303" r="7.03226" fill="#333333"/>
</svg>
