<svg width="662" height="664" viewBox="0 0 662 664" fill="none" xmlns="http://www.w3.org/2000/svg">
<path d="M130.475 82.2229L331.636 20.4293L548.042 82.2206L331.627 138.641L130.475 82.2229Z" fill="#A2C9E7" stroke="#004C6F" stroke-width="20"/>
<path d="M339.336 135.323L339.336 135.323H339.348C466.072 135.323 556.748 214.865 570.382 327.065C569.009 381.438 537.817 422.515 491.075 450.022C444.314 477.542 382.021 491.454 318.603 491.455C245.778 489.818 191.159 471.202 154.754 440.819C118.36 410.444 100.122 368.27 100.122 319.396C100.122 221.751 203.545 132.051 339.336 135.323Z" fill="white" stroke="#004C6F"/>
<path d="M164.876 164.184L184.552 178.543L144.618 213.08L144.566 213.125L144.527 213.184L111.791 263.093L102.831 235.157L93.0129 200.249L88.1139 165.956L92.9332 137.576L117.512 141.316L142.543 151.111L164.876 164.184Z" fill="#F9E4E9" stroke="#004C6F"/>
<path d="M502.898 166.368L483.221 180.727L523.155 215.264L523.208 215.31L523.246 215.368L555.982 265.277L564.943 237.341L574.761 202.433L579.66 168.14L574.84 139.76L550.262 143.5L525.231 153.295L502.898 166.368Z" fill="#F9E4E9" stroke="#004C6F"/>
<path d="M139.162 146.39L138.939 146.837L139.162 146.39L139.057 146.337L138.962 146.337C138.959 146.337 138.956 146.336 138.951 146.336C138.917 146.331 138.847 146.322 138.717 146.301C138.455 146.259 137.959 146.174 137.029 146.004C135.171 145.664 131.588 144.982 124.693 143.619L115.7 141.234L114.574 140.936L114.434 140.898L114.416 140.894L114.414 140.893L114.413 140.893L114.413 140.893L114.413 140.893L114.411 140.892L114.393 140.888L114.253 140.85L113.127 140.552L104.163 138.175L93.2578 132.982L93.2665 132.968L93.2978 132.921L93.3289 132.874L93.3598 132.828L93.3904 132.782L93.4207 132.736L93.4508 132.691L93.4807 132.646L93.5102 132.602L93.5396 132.557L93.5687 132.514L93.5975 132.47L93.6262 132.427L93.6545 132.384L93.6826 132.342L93.7105 132.3L93.7382 132.259L93.7656 132.217L93.7927 132.176L93.8197 132.136L93.8463 132.096L93.8728 132.056L93.899 132.017L93.925 131.977L93.9508 131.939L93.9763 131.9L94.0016 131.862L94.0267 131.824L94.0515 131.787L94.0761 131.75L94.1005 131.713L94.1247 131.677L94.1486 131.641L94.1723 131.605L94.1958 131.57L94.2191 131.535L94.2421 131.5L94.265 131.466L94.2876 131.432L94.31 131.398L94.3322 131.365L94.3541 131.332L94.3759 131.299L94.3974 131.266L94.4188 131.234L94.4399 131.203L94.4608 131.171L94.4815 131.14L94.502 131.109L94.5223 131.078L94.5424 131.048L94.5623 131.018L94.582 130.989L94.6014 130.959L94.6207 130.93L94.6398 130.902L94.6587 130.873L94.6774 130.845L94.6959 130.817L94.7141 130.79L94.7322 130.763L94.7501 130.736L94.7678 130.709L94.7854 130.683L94.8027 130.657L94.8198 130.631L94.8368 130.605L94.8536 130.58L94.8701 130.555L94.8865 130.53L94.9027 130.506L94.9187 130.482L94.9346 130.458L94.9503 130.434L94.9657 130.411L94.981 130.388L94.9962 130.365L95.0111 130.343L95.0259 130.321L95.0405 130.299L95.0549 130.277L95.0691 130.256L95.0832 130.234L95.0971 130.213L95.1109 130.193L95.1244 130.172L95.1378 130.152L95.1511 130.132L95.1641 130.113L95.1771 130.093L95.1898 130.074L95.2024 130.055L95.2148 130.036L95.2271 130.018L95.2392 130L95.2511 129.982L95.2629 129.964L95.2745 129.946L95.286 129.929L95.2973 129.912L95.3085 129.895L95.3195 129.879L95.3303 129.862L95.3411 129.846L95.3516 129.83L95.362 129.815L95.3723 129.799L95.3824 129.784L95.3924 129.769L95.4022 129.754L95.4119 129.74L95.4215 129.725L95.4309 129.711L95.4402 129.697L95.4493 129.683L95.4583 129.67L95.4672 129.656L95.4759 129.643L95.4845 129.63L95.4929 129.618L95.5013 129.605L95.5095 129.593L95.5175 129.581L95.5255 129.569L95.5333 129.557L95.541 129.545L95.5485 129.534L95.5559 129.523L95.5632 129.512L95.5704 129.501L95.5775 129.49L95.5844 129.48L95.5912 129.47L95.5979 129.46L95.6045 129.45L95.611 129.44L95.6174 129.43L95.6236 129.421L95.6297 129.412L95.6357 129.403L95.6416 129.394L95.6474 129.385L95.6531 129.377L95.6587 129.368L95.6641 129.36L95.6695 129.352L95.6748 129.344L95.6799 129.336L95.6849 129.329L95.6899 129.321L95.6947 129.314L95.6995 129.307L95.7041 129.3L95.7087 129.293L95.7131 129.286L95.7175 129.28L95.7218 129.273L95.7259 129.267L95.73 129.261L95.734 129.255L95.7379 129.249L95.7417 129.243L95.7454 129.238L95.749 129.232L95.7526 129.227L95.756 129.222L95.7594 129.217L95.7627 129.212L95.7659 129.207L95.769 129.202L95.7721 129.198L95.775 129.193L95.7779 129.189L95.7807 129.185L95.7834 129.18L95.7861 129.176L95.7887 129.173L95.7912 129.169L95.7936 129.165L95.796 129.162L95.7983 129.158L95.8005 129.155L95.8027 129.151L95.8048 129.148L95.8068 129.145L95.8088 129.142L95.8107 129.139L95.8126 129.137L95.8143 129.134L95.8161 129.131L95.8177 129.129L95.8193 129.127L95.8209 129.124L95.8224 129.122L95.8238 129.12L95.8252 129.118L95.8265 129.116L95.8278 129.114L95.829 129.112L95.8302 129.11L95.8313 129.108L95.8324 129.107L95.8334 129.105L95.8344 129.104L95.8353 129.102L95.8362 129.101L95.8371 129.1L95.8379 129.099L95.8387 129.097L95.8394 129.096L95.8401 129.095L95.8407 129.094L95.8414 129.093L95.8419 129.092L95.8425 129.092L95.843 129.091L95.8435 129.09L95.8439 129.089L95.8444 129.089L95.8448 129.088L95.8451 129.088L95.8455 129.087L95.8458 129.087L95.8461 129.086L95.8463 129.086L95.8466 129.086L95.8468 129.085L95.847 129.085L95.8472 129.085L95.8473 129.084L95.8475 129.084L95.8476 129.084L95.8477 129.084L95.8478 129.084L95.8479 129.084L95.8479 129.083L95.848 129.083L95.8481 129.083L95.8483 129.083L95.8484 129.083L95.8485 129.083L95.8486 129.083L95.8487 129.082L95.8488 129.082L95.8489 129.082L95.849 129.082L95.8492 129.082L95.8494 129.081L95.8496 129.081L95.8498 129.081L95.85 129.08L95.8503 129.08L95.8506 129.079L95.8509 129.079L95.8512 129.078L95.8516 129.078L95.852 129.077L95.8524 129.077L95.8529 129.076L95.8533 129.075L95.8539 129.075L95.8544 129.074L95.855 129.073L95.8556 129.072L95.8563 129.071L95.857 129.07L95.8577 129.069L95.8585 129.068L95.8593 129.066L95.8601 129.065L95.861 129.064L95.862 129.062L95.8629 129.061L95.864 129.059L95.865 129.058L95.8662 129.056L95.8674 129.054L95.8686 129.052L95.8699 129.05L95.8712 129.048L95.8726 129.046L95.874 129.044L95.8755 129.042L95.877 129.04L95.8786 129.037L95.8803 129.035L95.882 129.032L95.8838 129.029L95.8856 129.027L95.8875 129.024L95.8895 129.021L95.8915 129.018L95.8936 129.015L95.8958 129.011L95.898 129.008L95.9003 129.005L95.9027 129.001L95.9051 128.997L95.9077 128.994L95.9102 128.99L95.9129 128.986L95.9156 128.982L95.9184 128.977L95.9213 128.973L95.9243 128.969L95.9273 128.964L95.9305 128.959L95.9337 128.954L95.937 128.949L95.9403 128.944L95.9438 128.939L95.9473 128.934L95.951 128.928L95.9547 128.923L95.9585 128.917L95.9624 128.911L95.9664 128.905L95.9704 128.899L95.9746 128.893L95.9789 128.886L95.9832 128.88L95.9877 128.873L95.9922 128.866L95.9969 128.859L96.0016 128.852L96.0064 128.845L96.0114 128.837L96.0164 128.83L96.0216 128.822L96.0268 128.814L96.0322 128.806L96.0377 128.798L96.0432 128.79L96.0489 128.781L96.0547 128.772L96.0606 128.763L96.0666 128.754L96.0728 128.745L96.079 128.736L96.0854 128.726L96.0918 128.716L96.0984 128.706L96.1051 128.696L96.1119 128.686L96.1189 128.676L96.1259 128.665L96.1331 128.654L96.1404 128.643L96.1478 128.632L96.1554 128.621L96.1631 128.609L96.1709 128.597L96.1788 128.585L96.1869 128.573L96.1951 128.561L96.2034 128.548L96.2119 128.536L96.2204 128.523L96.2292 128.51L96.238 128.496L96.247 128.483L96.2562 128.469L96.2654 128.455L96.2748 128.441L96.2844 128.427L96.2941 128.412L96.3039 128.397L96.3139 128.382L96.324 128.367L96.3343 128.351L96.3447 128.336L96.3553 128.32L96.366 128.304L96.3769 128.287L96.3879 128.271L96.3991 128.254L96.4104 128.237L96.4218 128.22L96.4335 128.202L96.4453 128.184L96.4572 128.167L96.4693 128.148L96.4815 128.13L96.494 128.111L96.5066 128.092L96.5193 128.073L96.5322 128.054L96.5453 128.034L96.5585 128.014L96.5719 127.994L96.5855 127.973L96.5992 127.953L96.6131 127.932L96.6272 127.911L96.6415 127.889L96.6559 127.868L96.6705 127.846L96.6852 127.823L96.7002 127.801L96.7153 127.778L96.7306 127.755L96.7461 127.732L96.7618 127.708L96.7776 127.684L96.7936 127.66L96.8098 127.636L96.8262 127.611L96.8428 127.586L96.8596 127.561L96.8765 127.535L96.8937 127.51L96.911 127.484L96.9285 127.457L96.9462 127.431L96.9641 127.404L96.9822 127.376L97.0005 127.349L97.019 127.321L97.0377 127.293L97.0565 127.265L97.0756 127.236L97.0949 127.207L97.1144 127.177L97.1341 127.148L97.1539 127.118L97.174 127.088L97.1943 127.057L97.2148 127.026L97.2355 126.995L97.2565 126.964L97.2776 126.932L97.2989 126.9L97.3205 126.867L97.3422 126.835L97.3642 126.802L97.3864 126.768L97.4088 126.734L97.4314 126.7L97.4542 126.666L97.4773 126.631L97.5005 126.596L97.524 126.561L97.5477 126.525L97.5717 126.489L97.5958 126.453L97.6202 126.416L97.6449 126.379L97.6697 126.342L97.6948 126.304L97.7201 126.266L97.7456 126.228L97.7713 126.189L97.7973 126.15L97.8235 126.11L97.85 126.07L97.8767 126.03L97.9036 125.99L97.9308 125.949L97.9582 125.908L97.9858 125.866L98.0137 125.824L98.0418 125.782L98.0702 125.739L98.0988 125.696L98.1277 125.653L98.1568 125.609L98.1861 125.565L98.2157 125.52L98.2455 125.475L98.2756 125.43L98.306 125.384L98.3366 125.338L98.3674 125.292L98.3985 125.245L98.4299 125.198L98.4615 125.15L98.4934 125.102L98.5255 125.054L98.5579 125.005L98.5905 124.956L98.6234 124.906L98.6566 124.856L98.69 124.806L98.7237 124.755L98.7367 124.736C104.812 118.065 113.186 116.085 123.403 113.67C123.83 113.569 124.262 113.467 124.696 113.364C129.968 112.112 136.129 112.806 142.591 114.163C145.793 114.836 149.052 115.667 152.299 116.495L152.369 116.513C155.636 117.346 158.89 118.175 162.041 118.827C163.549 119.14 165.488 119.895 167.798 121.006C170.101 122.113 172.745 123.559 175.657 125.234C178.568 126.909 181.739 128.807 185.097 130.818L185.184 130.87C188.515 132.865 192.027 134.968 195.642 137.067C202.934 141.301 210.659 145.524 218.19 148.814C224.895 151.744 231.471 153.946 237.47 154.75L186.508 173.133C183.953 171.536 179.814 169.072 175.219 166.335C174.1 165.669 172.954 164.987 171.797 164.297C165.752 160.691 159.406 156.877 155.046 154.062L155.017 154.043L154.986 154.029C150.894 152.119 146.938 150.209 144.005 148.777C142.538 148.061 141.327 147.464 140.483 147.046C140.061 146.837 139.731 146.673 139.506 146.561L139.25 146.433L139.184 146.401L139.168 146.393L139.164 146.39L139.163 146.39L139.162 146.39Z" fill="white" stroke="#004C6F"/>
<path d="M530.259 148.826L530.483 149.273L530.259 148.826L530.365 148.773L530.46 148.773C530.463 148.773 530.466 148.773 530.47 148.772C530.505 148.768 530.574 148.758 530.705 148.737C530.967 148.695 531.462 148.611 532.393 148.44C534.251 148.1 537.834 147.419 544.729 146.056L553.722 143.671L554.848 143.372L554.988 143.335L555.006 143.33L555.008 143.33L555.008 143.329L555.008 143.329L555.009 143.329L555.011 143.329L555.029 143.324L555.169 143.287L556.295 142.988L565.259 140.611L575.94 135.525C573.471 133.694 571.924 132.874 570.934 132.555C570.404 132.384 570.057 132.364 569.827 132.392C569.606 132.42 569.458 132.496 569.321 132.586C569.284 132.61 569.249 132.634 569.21 132.662L569.2 132.669C569.165 132.694 569.124 132.722 569.084 132.749C568.998 132.805 568.876 132.879 568.727 132.92C568.36 133.021 568.037 132.881 567.747 132.641C567.471 132.412 567.146 132.031 566.724 131.463C566.315 130.914 565.796 130.161 565.117 129.143C559.793 127.606 557.292 125.391 554.893 123.267L554.775 123.163C552.356 121.021 549.995 118.982 544.726 117.732C539.426 116.474 533.375 116.636 527.056 117.446C521.624 118.143 516.029 119.314 510.571 120.456C509.679 120.643 508.791 120.829 507.909 121.012C504.828 121.65 499.714 123.589 493.562 126.277C487.423 128.959 480.29 132.368 473.189 135.92C459.577 142.731 446.111 150.057 440.022 153.789L482.947 175.549C485.505 173.951 489.627 171.497 494.203 168.772C495.322 168.106 496.468 167.423 497.625 166.733C503.67 163.128 510.016 159.313 514.376 156.498L514.405 156.48L514.436 156.465C518.528 154.556 522.484 152.646 525.417 151.213C526.884 150.497 528.095 149.9 528.939 149.482C529.361 149.273 529.691 149.109 529.916 148.998L530.172 148.87L530.237 148.837L530.254 148.829L530.258 148.827L530.259 148.826L530.259 148.826Z" fill="white" stroke="#004C6F"/>
<path d="M105.787 318.236L105.798 318.012L105.799 317.788C105.941 270.53 132.112 225.944 174.306 192.836C216.456 159.762 273.862 138.816 334.433 138.816C403.169 138.816 456.643 158.739 494.652 190.865C532.672 223.001 555.9 267.92 563.165 319.162C569.092 360.96 549.856 400.446 509.712 431.055C469.438 461.763 408.594 482.979 333.911 486.883C263.992 490.538 205.509 473.159 165.399 442.647C125.459 412.266 103.371 368.676 105.787 318.236Z" stroke="#004C6F" stroke-width="20"/>
<path d="M110.979 273.975C56.5699 130.795 98.0762 74.4777 243.49 159.064" stroke="#004C6F" stroke-width="20"/>
<path d="M551.508 275.677C608.907 137.411 571.534 75.4896 424.218 156.95" stroke="#004C6F" stroke-width="20"/>
<path d="M480.349 178.729C516.435 151.045 539 144.001 574.365 144.182" stroke="#004C6F" stroke-width="20"/>
<path d="M183.661 177.634C148.96 148.233 126.763 140.103 91.4303 138.569" stroke="#004C6F" stroke-width="20"/>
<path d="M450.88 357.859C474.057 352.645 488.444 353.821 513.204 362.543" stroke="#004C6F" stroke-width="20" stroke-linecap="round"/>
<path d="M218.579 358.405C195.401 353.191 181.014 354.367 156.254 363.089" stroke="#004C6F" stroke-width="20" stroke-linecap="round"/>
<path d="M228.577 387.502C204.945 389.93 191.679 395.62 170.979 411.764" stroke="#004C6F" stroke-width="20" stroke-linecap="round"/>
<path d="M442.009 387.502C465.642 389.93 478.908 395.62 499.608 411.764" stroke="#004C6F" stroke-width="20" stroke-linecap="round"/>
<circle cx="248.699" cy="312.843" r="26.8036" fill="#004C6F" stroke="#004C6F"/>
<circle cx="420.166" cy="312.843" r="26.8036" fill="#004C6F" stroke="#004C6F"/>
<path d="M310 359.395C330.774 349.673 341.873 352.154 360 359.395" stroke="#004C6F" stroke-width="20" stroke-linecap="round"/>
<path d="M334.507 96H334.504L334.504 96L334.44 96.0004C334.375 96.0009 334.264 96.002 334.109 96.0044C333.799 96.0092 333.31 96.0192 332.647 96.04C331.321 96.0816 329.298 96.1663 326.612 96.3388C321.238 96.6839 313.212 97.3802 302.801 98.7852C283.306 101.416 255.451 106.532 221 116.479V173.929C221.64 174.188 222.334 174.463 223.081 174.753C228.337 176.794 236.215 179.559 246.47 182.337C266.979 187.893 296.971 193.5 334.5 193.5C372.041 193.5 403.324 187.891 425.167 182.301C436.083 179.508 444.623 176.725 450.386 174.661C451.333 174.322 452.205 174.002 453 173.705V111.861C418.67 101.496 389.863 97.4577 369.372 96.0386C358.442 95.2817 349.881 95.2703 344.116 95.4409C341.234 95.5263 339.051 95.6571 337.621 95.7628C336.907 95.8157 336.38 95.8623 336.049 95.8938C335.883 95.9095 335.766 95.9215 335.699 95.9286L335.646 95.9341L335.641 95.9347L335.636 95.9352L335.635 95.9354L335.631 95.9358L335.075 96L334.511 96L334.507 96ZM215.428 171.512L215.426 171.511C215.424 171.51 215.425 171.51 215.428 171.512Z" fill="#E3F6FF" stroke="#004C6F" stroke-width="20"/>
<path d="M231 148.5C231 148.5 273.838 138 338.661 138C403.485 138 443 148.5 443 148.5V119.5C385 102 338.661 105.5 338.661 105.5C338.661 105.5 294.509 103.5 231 124V148.5Z" fill="#A2C9E7"/>
<path d="M212.32 185.645L220.286 207.553H182.714L190.68 185.645L190.681 185.645L190.685 185.632L194.79 173.316L196.729 167.5H206.247L208.21 173.316L208.21 173.318L212.315 185.632L212.315 185.632L212.32 185.645Z" fill="#E5A22E" stroke="#E5A22E"/>
<circle cx="202" cy="153" r="19.5" fill="#E5A22E" stroke="#E5A22E"/>
<rect x="225" y="381" width="212" height="260" rx="26" fill="#FCE8BC" stroke="#E5A22E" stroke-width="20"/>
<rect x="252" y="402" width="150" height="74" rx="9" fill="#E5A22E"/>
<rect x="318" y="490" width="84" height="17" rx="8.5" fill="#E5A22E"/>
<rect x="318" y="521" width="42" height="10" rx="5" fill="#E5A22E"/>
<rect x="252" y="492" width="47" height="24" rx="9" fill="#004C6F"/>
<rect x="252" y="521" width="47" height="24" rx="9" fill="#004C6F"/>
<rect x="252" y="550" width="47" height="24" rx="9" fill="#004C6F"/>
<rect x="253" y="579" width="47" height="24" rx="9" fill="#004C6F"/>
<rect x="318" y="569" width="84" height="10" rx="5" fill="#E5A22E"/>
<rect x="318" y="593" width="84" height="10" rx="5" fill="#E5A22E"/>
<rect x="318" y="545" width="17" height="10" rx="5" fill="#E5A22E"/>
<rect x="347" y="545" width="55" height="10" rx="5" fill="#E5A22E"/>
<ellipse cx="326.727" cy="441.385" rx="36.5874" ry="24.6153" fill="white"/>
<path d="M286.496 417.085C286.019 415.35 285.781 414.482 286.017 413.883C286.222 413.361 286.646 412.948 287.181 412.747C287.796 412.517 288.685 412.75 290.463 413.214L312.484 418.97L292.396 438.566L286.496 417.085Z" fill="white"/>
<path d="M366.593 417.085C367.069 415.35 367.307 414.482 367.072 413.883C366.866 413.361 366.443 412.948 365.907 412.747C365.293 412.517 364.404 412.75 362.625 413.214L340.605 418.97L360.692 438.566L366.593 417.085Z" fill="white"/>
<circle cx="205" cy="525" r="27.5" fill="white" stroke="#004C6F" stroke-width="15"/>
<circle cx="453" cy="525" r="27.5" fill="white" stroke="#004C6F" stroke-width="15"/>
<path d="M188 54L215 45.7812V148H188V54Z" fill="#E5A22E"/>
</svg>
